<?xml version="1.0" standalone="no"?>
<!DOCTYPE svg PUBLIC "-//W3C//DTD SVG 20010904//EN"
 "http://www.w3.org/TR/2001/REC-SVG-20010904/DTD/svg10.dtd">
<svg version="1.0" xmlns="http://www.w3.org/2000/svg"
 width="1280.000000pt" height="1024.000000pt" viewBox="0 0 1280.000000 1024.000000"
 preserveAspectRatio="xMidYMid meet">
<metadata>
Created by potrace 1.15, written by Peter Selinger 2001-2017
</metadata>
<g transform="translate(0.000000,1024.000000) scale(0.100000,-0.100000)"
fill="#000000" stroke="none">
<path d="M8196 9749 c-73 -17 -93 -57 -61 -119 21 -40 82 -80 123 -80 25 0 43
9 68 34 30 30 34 40 34 84 0 43 -4 54 -26 71 -29 23 -71 26 -138 10z"/>
<path d="M9726 9594 c-39 -38 -30 -107 16 -133 21 -12 33 -13 67 -2 77 23 76
84 -2 131 -39 24 -60 25 -81 4z"/>
<path d="M6942 9551 c-63 -22 -98 -52 -123 -106 -25 -54 -23 -110 5 -171 33
-70 69 -97 123 -91 90 10 209 91 239 163 8 18 14 58 14 88 0 44 -5 60 -26 85
-44 52 -136 65 -232 32z"/>
<path d="M11166 9528 c-23 -32 -20 -65 9 -93 26 -27 54 -31 88 -14 46 25 49
59 8 100 -37 36 -83 39 -105 7z"/>
<path d="M7637 9399 c-36 -21 -40 -57 -12 -105 25 -42 28 -44 73 -44 53 0 72
12 72 47 0 60 -88 128 -133 102z"/>
<path d="M8837 9205 c-17 -17 -22 -60 -11 -90 18 -45 113 -55 149 -15 22 25
12 54 -29 85 -44 34 -88 42 -109 20z"/>
<path d="M10353 9183 c-12 -2 -36 -17 -53 -33 -35 -32 -40 -81 -15 -130 37
-71 144 -84 211 -27 20 17 26 32 26 61 0 80 -87 146 -169 129z"/>
<path d="M9695 9107 c-51 -28 -80 -83 -65 -121 12 -33 69 -59 108 -50 61 15
101 82 82 140 -19 58 -60 68 -125 31z"/>
<path d="M5187 9050 c-35 -28 -51 -79 -36 -114 34 -74 189 -25 189 59 0 67
-94 101 -153 55z"/>
<path d="M7599 8961 c-31 -31 -40 -46 -37 -68 3 -26 6 -28 50 -27 65 0 80 16
76 78 -3 44 -6 51 -26 54 -16 3 -35 -9 -63 -37z"/>
<path d="M11691 8917 c-19 -6 -54 -29 -77 -51 -34 -33 -44 -50 -49 -88 -4 -27
-4 -63 -1 -81 9 -49 60 -105 108 -118 120 -32 298 92 298 207 0 44 -37 102
-80 124 -44 22 -140 26 -199 7z"/>
<path d="M5980 8891 c0 -4 -16 -28 -35 -52 -20 -25 -35 -55 -35 -71 0 -82 123
-87 202 -8 46 45 48 72 9 111 -26 25 -37 29 -85 29 -31 0 -56 -4 -56 -9z"/>
<path d="M11021 8889 c-51 -15 -77 -36 -96 -76 -44 -92 28 -193 138 -193 40 0
111 49 132 91 54 104 -53 214 -174 178z"/>
<path d="M8933 8840 c-114 -24 -183 -93 -183 -182 0 -111 108 -176 246 -148
74 16 127 66 150 145 25 87 7 138 -61 173 -31 16 -105 22 -152 12z"/>
<path d="M4474 8781 c-55 -25 -111 -76 -136 -124 -41 -80 -17 -192 52 -251 69
-58 220 -20 284 72 57 81 43 239 -25 297 -38 31 -114 34 -175 6z"/>
<path d="M7135 8711 c-68 -17 -105 -61 -105 -122 0 -62 109 -131 178 -114 38
9 89 66 97 107 16 86 -72 153 -170 129z"/>
<path d="M8077 8692 c-16 -2 -34 -14 -43 -28 -46 -70 69 -140 130 -78 19 18
21 78 4 91 -16 13 -55 19 -91 15z"/>
<path d="M10687 8654 c-41 -22 -53 -61 -29 -93 27 -37 71 -39 111 -6 23 20 31
35 31 61 0 52 -53 70 -113 38z"/>
<path d="M5154 8581 c-44 -27 -75 -70 -72 -100 3 -23 8 -26 49 -29 63 -4 99
24 99 78 0 35 -19 70 -38 70 -4 0 -21 -9 -38 -19z"/>
<path d="M9945 8593 c-87 -16 -114 -68 -80 -150 18 -43 30 -53 67 -53 40 0 78
20 94 51 16 32 18 92 4 119 -11 21 -56 38 -85 33z"/>
<path d="M9383 8543 c-58 -11 -98 -119 -54 -143 46 -24 124 1 141 46 15 38 12
53 -15 79 -24 25 -30 26 -72 18z"/>
<path d="M10260 8535 c-31 -38 48 -108 96 -86 20 9 24 18 24 56 l0 45 -54 0
c-36 0 -58 -5 -66 -15z"/>
<path d="M11375 8504 c-23 -21 -26 -31 -21 -57 8 -40 30 -57 74 -57 68 0 125
102 73 130 -37 19 -96 12 -126 -16z"/>
<path d="M5822 8420 c-39 -38 -57 -91 -42 -120 8 -15 21 -20 50 -20 53 0 68 8
86 42 25 49 -3 128 -47 128 -10 0 -31 -13 -47 -30z"/>
<path d="M8394 8405 c-17 -43 40 -110 74 -88 24 15 39 83 21 94 -24 15 -89 11
-95 -6z"/>
<path d="M3508 8341 c-44 -28 -48 -34 -48 -70 0 -30 6 -44 22 -55 46 -33 149
-8 171 41 8 19 7 34 -4 66 -13 39 -17 42 -54 45 -31 2 -51 -4 -87 -27z"/>
<path d="M9569 8291 c-39 -40 -39 -82 0 -110 59 -42 111 -15 111 59 0 78 -57
104 -111 51z"/>
<path d="M11023 8280 c-47 -19 -56 -78 -17 -109 49 -39 114 -24 133 30 22 65
-42 109 -116 79z"/>
<path d="M8748 8217 c-36 -30 -68 -86 -68 -120 0 -61 102 -58 154 4 30 35 33
67 11 109 -19 37 -58 40 -97 7z"/>
<path d="M10716 8200 c-46 -41 -57 -87 -26 -112 32 -26 65 -22 105 13 41 36
47 77 15 109 -28 28 -54 25 -94 -10z"/>
<path d="M7033 8159 c-28 -18 -33 -27 -33 -59 0 -76 67 -95 126 -36 40 40 42
59 9 91 -29 30 -60 31 -102 4z"/>
<path d="M6455 8141 c-93 -42 -145 -117 -145 -210 0 -66 18 -101 67 -128 85
-47 161 -39 236 27 58 51 87 111 87 179 0 99 -52 151 -150 151 -32 0 -72 -8
-95 -19z"/>
<path d="M10224 8116 c-19 -19 -34 -44 -34 -55 0 -93 142 -161 217 -105 41 30
44 90 7 133 -59 71 -135 82 -190 27z"/>
<path d="M11646 8115 c-69 -74 -22 -205 73 -205 132 0 192 83 120 165 -41 46
-78 65 -129 65 -31 0 -47 -6 -64 -25z"/>
<path d="M7489 8110 c-23 -14 -42 -65 -35 -95 14 -56 139 -88 194 -49 26 18
30 70 7 113 -12 24 -22 29 -67 34 -69 9 -80 8 -99 -3z"/>
<path d="M7999 8079 c-11 -11 -27 -36 -35 -55 -27 -65 14 -91 96 -63 32 12 32
12 27 61 -10 78 -44 101 -88 57z"/>
<path d="M9192 8085 c-45 -20 -82 -63 -82 -96 0 -18 12 -42 32 -65 31 -36 34
-36 89 -31 69 6 115 31 128 69 34 96 -64 168 -167 123z"/>
<path d="M9890 8075 c-6 -8 -18 -35 -26 -60 l-13 -46 35 -15 c20 -8 44 -12 55
-9 44 14 48 81 8 124 -23 25 -42 27 -59 6z"/>
<path d="M4420 8018 c-43 -29 -77 -94 -63 -117 16 -25 87 -20 118 9 29 28 34
89 9 114 -20 21 -25 20 -64 -6z"/>
<path d="M8375 8018 c-28 -16 -35 -28 -35 -64 0 -26 6 -35 35 -48 39 -19 66
-11 85 24 14 25 13 73 -2 88 -15 15 -57 15 -83 0z"/>
<path d="M5349 7987 c-69 -46 -69 -146 0 -181 58 -30 149 -16 203 32 26 22 33
74 14 109 -32 63 -151 84 -217 40z"/>
<path d="M11362 7948 c-18 -18 -14 -73 6 -98 33 -41 90 -8 107 62 5 20 1 25
-28 36 -42 15 -70 15 -85 0z"/>
<path d="M5862 7880 c-76 -71 19 -174 101 -110 33 26 38 87 9 113 -26 24 -83
22 -110 -3z"/>
<path d="M6906 7869 c-35 -28 -69 -95 -62 -124 8 -30 30 -37 77 -25 68 19 101
94 63 148 -19 28 -44 28 -78 1z"/>
<path d="M9523 7869 c-39 -11 -63 -43 -63 -84 0 -36 7 -48 38 -64 52 -28 142
25 142 83 0 55 -53 84 -117 65z"/>
<path d="M7395 7816 c-70 -73 -64 -132 13 -129 42 2 95 24 108 45 12 19 6 79
-11 104 -25 38 -61 31 -110 -20z"/>
<path d="M4659 7821 c-36 -37 -37 -70 -3 -105 75 -74 185 37 116 117 -24 28
-78 22 -113 -12z"/>
<path d="M1426 7798 c-9 -13 -16 -43 -16 -69 0 -37 5 -52 26 -73 15 -14 36
-26 48 -27 105 -5 165 36 135 93 -44 86 -156 130 -193 76z"/>
<path d="M10708 7793 c-79 -85 -60 -181 39 -198 76 -12 143 44 143 120 0 66
-50 105 -134 105 -12 0 -34 -12 -48 -27z"/>
<path d="M9967 7776 c-96 -35 -157 -108 -157 -189 0 -42 5 -54 33 -82 40 -40
131 -70 188 -62 85 11 139 87 139 195 0 54 -4 65 -31 96 -28 32 -80 57 -119
56 -8 -1 -32 -7 -53 -14z"/>
<path d="M4040 7741 c-72 -38 -33 -115 54 -109 38 3 41 5 44 35 4 39 -23 93
-46 93 -9 0 -33 -8 -52 -19z"/>
<path d="M3037 7724 c-143 -44 -195 -227 -84 -294 70 -43 190 -16 269 60 40
39 48 52 48 84 0 42 -26 98 -63 139 -22 22 -34 27 -74 26 -26 0 -70 -7 -96
-15z"/>
<path d="M5083 7698 c-61 -64 -52 -108 21 -108 57 0 86 22 86 66 0 80 -52 100
-107 42z"/>
<path d="M8830 7711 c-53 -28 -93 -100 -98 -176 -4 -58 -2 -65 25 -95 26 -29
36 -33 77 -33 67 2 117 37 151 108 45 92 25 169 -52 201 -43 18 -62 18 -103
-5z"/>
<path d="M7932 7672 c-41 -39 -49 -73 -26 -113 40 -68 160 -94 209 -45 34 35
43 91 18 124 -27 37 -80 62 -129 62 -32 0 -49 -7 -72 -28z"/>
<path d="M8389 7677 c-25 -19 -41 -56 -34 -77 9 -27 56 -50 104 -50 31 0 44 6
61 27 22 29 22 72 -1 100 -14 16 -108 17 -130 0z"/>
<path d="M11184 7671 c-62 -38 -77 -81 -50 -146 34 -81 195 -64 242 26 22 44
6 102 -36 124 -41 21 -118 19 -156 -4z"/>
<path d="M4416 7621 c-9 -10 -19 -34 -23 -54 -4 -29 -1 -40 20 -61 27 -27 59
-32 101 -16 38 14 49 43 32 83 -26 62 -94 88 -130 48z"/>
<path d="M11864 7611 c-56 -34 -81 -90 -52 -119 20 -20 92 -15 122 9 30 24 35
72 10 107 -19 27 -39 28 -80 3z"/>
<path d="M5442 7595 c-36 -30 -43 -75 -16 -113 12 -17 25 -22 59 -22 119 0
146 141 29 157 -33 4 -45 1 -72 -22z"/>
<path d="M9214 7610 c-21 -8 -74 -65 -74 -80 0 -5 -3 -15 -6 -23 -15 -39 60
-61 115 -32 46 23 57 89 21 125 -22 22 -25 23 -56 10z"/>
<path d="M7565 7568 c-63 -34 -81 -81 -49 -126 37 -53 144 7 144 81 0 23 -7
31 -35 43 -40 16 -35 16 -60 2z"/>
<path d="M6216 7499 c-30 -36 -34 -79 -8 -102 36 -33 91 -17 117 33 20 38 19
63 -3 83 -30 28 -76 21 -106 -14z"/>
<path d="M2238 7475 c-45 -31 -88 -100 -88 -144 0 -39 33 -55 97 -45 88 13
134 70 119 148 -13 69 -63 85 -128 41z"/>
<path d="M10295 7476 c-45 -20 -67 -50 -72 -99 -13 -108 88 -176 194 -132 97
41 138 105 108 169 -31 65 -151 97 -230 62z"/>
<path d="M6589 7411 c-21 -16 -24 -28 -24 -81 0 -57 2 -64 33 -91 39 -35 95
-39 159 -10 52 24 69 52 53 91 -35 85 -164 138 -221 91z"/>
<path d="M9420 7413 c-26 -10 -61 -47 -81 -85 -33 -65 -21 -98 38 -98 41 0 89
23 103 49 17 33 12 99 -10 121 -21 21 -25 22 -50 13z"/>
<path d="M11507 7390 c-31 -36 -35 -80 -11 -105 24 -23 62 -12 102 30 50 54
40 90 -30 102 -30 4 -38 1 -61 -27z"/>
<path d="M8358 7374 c-54 -29 -49 -106 8 -130 93 -39 177 54 109 121 -28 29
-75 32 -117 9z"/>
<path d="M3812 7374 c-19 -9 -42 -59 -42 -93 0 -20 11 -42 29 -63 25 -28 36
-33 71 -32 41 1 83 24 103 56 15 23 -9 74 -49 104 -32 25 -87 38 -112 28z"/>
<path d="M7911 7371 c-13 -4 -33 -18 -44 -33 -40 -53 7 -108 92 -108 48 0 71
20 71 64 0 54 -60 93 -119 77z"/>
<path d="M10806 7369 c-45 -13 -66 -38 -66 -79 0 -62 51 -87 115 -58 28 13 55
55 55 86 0 43 -49 67 -104 51z"/>
<path d="M4906 7348 c-15 -13 -29 -37 -32 -55 -9 -44 33 -88 74 -79 39 10 72
51 72 90 0 63 -65 87 -114 44z"/>
<path d="M5966 7351 c-10 -11 -19 -35 -19 -53 -2 -33 -2 -33 49 -36 77 -4 96
37 41 88 -26 25 -49 25 -71 1z"/>
<path d="M4387 7340 c-32 -26 -36 -67 -9 -100 43 -53 120 24 90 88 -17 34 -47
39 -81 12z"/>
<path d="M7194 7325 c-19 -47 -18 -62 7 -76 17 -8 31 -7 65 6 78 30 80 74 5
95 -54 15 -61 13 -77 -25z"/>
<path d="M9790 7334 c-53 -45 -75 -114 -50 -154 13 -20 88 -16 120 8 37 27 63
84 51 114 -23 62 -70 74 -121 32z"/>
<path d="M12180 7327 c-34 -17 -40 -82 -11 -118 40 -49 201 -21 201 35 0 30
-48 72 -98 86 -48 13 -62 12 -92 -3z"/>
<path d="M3385 7307 c-25 -38 6 -117 46 -117 22 0 46 34 55 76 5 28 2 33 -29
47 -46 22 -54 21 -72 -6z"/>
<path d="M5354 7298 c-43 -20 -59 -99 -25 -118 53 -28 121 8 121 65 0 56 -42
80 -96 53z"/>
<path d="M11134 7253 c-19 -14 -23 -41 -13 -78 10 -36 11 -37 47 -30 66 12 91
54 54 88 -21 20 -72 31 -88 20z"/>
<path d="M4673 7223 c-26 -5 -63 -48 -63 -73 0 -10 8 -28 18 -40 26 -32 117
-40 149 -14 72 61 -1 149 -104 127z"/>
<path d="M5128 7219 c-12 -7 -18 -22 -18 -48 0 -46 33 -81 76 -81 31 0 74 31
74 53 0 21 -30 56 -60 72 -34 17 -48 18 -72 4z"/>
<path d="M2730 7190 c-22 -22 -26 -51 -10 -81 16 -29 74 -26 105 6 30 29 31
35 4 69 -25 32 -70 35 -99 6z"/>
<path d="M1253 7174 c-56 -20 -127 -84 -152 -137 -34 -71 -25 -135 27 -190 81
-85 193 -81 290 11 114 106 121 230 20 305 -36 27 -128 32 -185 11z"/>
<path d="M6784 7179 c-51 -25 -75 -137 -35 -159 33 -17 69 -11 102 18 42 37
47 103 10 133 -26 21 -45 23 -77 8z"/>
<path d="M8630 7167 c-29 -14 -70 -89 -70 -129 0 -16 12 -41 29 -60 29 -32 31
-33 116 -33 83 0 88 1 112 29 20 23 24 37 20 64 -8 47 -48 96 -100 121 -50 24
-72 26 -107 8z"/>
<path d="M6430 7132 c-22 -17 -23 -23 -12 -46 6 -14 24 -32 38 -38 23 -11 29
-10 46 12 12 14 18 35 16 54 -3 26 -8 31 -34 34 -19 2 -40 -4 -54 -16z"/>
<path d="M1822 7124 c-35 -24 -31 -85 9 -118 38 -32 59 -33 87 -3 37 39 28 98
-19 122 -36 19 -49 19 -77 -1z"/>
<path d="M11740 7114 c-63 -27 -110 -86 -110 -138 0 -14 14 -41 31 -61 26 -29
38 -35 71 -35 101 0 188 57 188 124 0 102 -82 152 -180 110z"/>
<path d="M7406 7101 c-9 -10 -19 -35 -23 -54 -5 -31 -1 -40 25 -67 36 -36 72
-39 120 -10 24 15 32 27 32 47 -1 73 -110 132 -154 84z"/>
<path d="M7670 7112 c-23 -8 -30 -23 -30 -68 0 -67 56 -99 124 -70 29 12 36
20 36 44 0 48 -84 109 -130 94z"/>
<path d="M5725 7098 c-32 -18 -44 -40 -45 -79 0 -68 62 -99 130 -64 16 8 34
24 40 34 12 23 13 71 2 87 -21 32 -89 44 -127 22z"/>
<path d="M4184 7076 c-14 -58 33 -94 85 -65 35 20 36 35 7 64 -34 34 -83 35
-92 1z"/>
<path d="M8233 7065 c-13 -28 -14 -39 -5 -60 31 -67 132 -36 132 40 0 21 -50
55 -82 55 -23 0 -32 -7 -45 -35z"/>
<path d="M3845 7055 c-18 -18 -25 -35 -25 -65 0 -35 4 -43 33 -60 37 -23 65
-25 101 -8 28 12 39 37 38 83 -2 67 -98 100 -147 50z"/>
<path d="M4486 7046 c-42 -89 6 -136 85 -83 44 30 46 64 4 88 -59 33 -71 33
-89 -5z"/>
<path d="M9070 7058 c-14 -15 -20 -35 -20 -67 0 -63 28 -107 79 -122 36 -11
45 -9 88 12 26 13 54 36 62 50 47 86 -141 200 -209 127z"/>
<path d="M3166 7044 c-42 -42 8 -134 73 -134 39 0 71 31 71 69 0 60 -103 107
-144 65z"/>
<path d="M3497 7043 c-9 -8 -9 -56 -1 -77 9 -22 50 -20 74 4 23 23 26 50 8 68
-13 13 -70 17 -81 5z"/>
<path d="M6019 7001 c-23 -24 -29 -38 -29 -74 0 -48 10 -62 51 -72 58 -14 120
51 105 110 -17 66 -79 84 -127 36z"/>
<path d="M11400 7011 c-25 -48 4 -111 53 -111 33 0 87 37 87 59 0 53 -116 96
-140 52z"/>
<path d="M10211 6974 c-30 -38 -27 -80 8 -115 33 -33 71 -37 126 -15 48 21 61
49 38 88 -39 66 -135 89 -172 42z"/>
<path d="M10620 6958 c-11 -18 -19 -44 -18 -58 3 -23 7 -25 56 -25 43 1 57 6
78 27 22 21 24 29 15 46 -11 20 -59 42 -93 42 -10 0 -27 -15 -38 -32z"/>
<path d="M5206 6960 c-53 -21 -118 -78 -142 -122 -8 -15 -14 -49 -14 -75 0
-98 68 -152 190 -153 71 0 88 8 153 69 135 126 93 290 -76 298 -44 2 -76 -3
-111 -17z"/>
<path d="M8030 6951 c-19 -10 -44 -35 -55 -55 -20 -37 -20 -37 -1 -52 40 -29
122 -9 132 32 9 35 1 66 -21 80 -18 12 -26 11 -55 -5z"/>
<path d="M9576 6949 c-58 -46 -71 -122 -22 -135 56 -14 135 50 122 100 -14 56
-55 70 -100 35z"/>
<path d="M6313 6932 c-35 -22 -43 -112 -13 -142 47 -47 140 0 140 72 0 53 -24
78 -73 78 -23 0 -47 -4 -54 -8z"/>
<path d="M9942 6918 c-37 -37 20 -127 79 -128 34 0 49 19 56 68 4 33 2 42 -18
56 -27 19 -100 21 -117 4z"/>
<path d="M4804 6875 c-32 -49 0 -145 48 -145 35 0 68 48 68 99 0 57 -12 71
-62 71 -29 0 -41 -6 -54 -25z"/>
<path d="M11114 6886 c-49 -22 -74 -61 -74 -118 0 -41 5 -54 29 -79 24 -24 38
-29 76 -29 84 0 165 59 165 120 0 54 -80 121 -142 120 -13 -1 -37 -7 -54 -14z"/>
<path d="M3664 6862 c-31 -5 -54 -34 -61 -75 -4 -30 -1 -40 21 -62 22 -22 33
-26 59 -21 42 8 67 40 67 86 0 51 -36 81 -86 72z"/>
<path d="M4312 6858 c-18 -18 -15 -94 4 -112 40 -41 143 -3 129 47 -16 56
-101 97 -133 65z"/>
<path d="M7303 6858 c-12 -6 -30 -30 -38 -53 -15 -38 -15 -46 -2 -78 39 -91
217 -105 256 -20 27 59 -1 122 -65 149 -39 16 -119 17 -151 2z"/>
<path d="M7080 6846 c-38 -12 -80 -66 -80 -102 0 -29 33 -64 60 -64 33 0 86
26 104 51 21 31 21 82 -1 101 -28 23 -45 26 -83 14z"/>
<path d="M2674 6839 c-51 -19 -86 -116 -55 -153 15 -18 82 -22 111 -6 10 5 24
26 30 45 21 64 -32 135 -86 114z"/>
<path d="M5872 6800 c-31 -51 -2 -110 54 -110 47 0 74 25 74 69 0 48 -14 61
-70 61 -34 0 -48 -5 -58 -20z"/>
<path d="M7786 6789 c-51 -40 -74 -122 -41 -149 22 -18 92 -6 121 21 18 17 24
33 24 64 0 77 -49 108 -104 64z"/>
<path d="M5534 6775 c-11 -17 -14 -35 -10 -60 6 -32 10 -35 42 -35 76 0 96 40
45 91 -36 36 -56 37 -77 4z"/>
<path d="M4011 6777 c-27 -14 -56 -51 -66 -84 -4 -16 1 -30 19 -48 36 -36 88
-34 127 4 37 37 38 78 4 115 -26 29 -48 32 -84 13z"/>
<path d="M12005 6766 c-10 -15 -15 -40 -13 -62 3 -34 6 -39 36 -45 89 -18 121
34 59 96 -41 41 -61 44 -82 11z"/>
<path d="M3053 6761 c-140 -64 -53 -251 97 -211 53 14 110 65 110 96 0 42 -28
93 -62 114 -41 25 -91 25 -145 1z"/>
<path d="M4604 6765 c-26 -11 -32 -20 -38 -56 -6 -39 -4 -46 19 -66 14 -13 34
-23 44 -23 40 0 74 77 52 119 -18 33 -42 41 -77 26z"/>
<path d="M6543 6745 c-12 -8 -28 -33 -34 -55 -10 -33 -9 -43 8 -72 56 -96 214
-103 252 -10 17 40 -5 82 -60 119 -50 33 -133 42 -166 18z"/>
<path d="M8266 6700 c-65 -78 8 -177 79 -106 30 30 41 70 29 105 -7 21 -17 27
-45 29 -30 3 -41 -2 -63 -28z"/>
<path d="M6213 6690 c-42 -25 -52 -63 -28 -106 21 -39 41 -48 89 -39 48 10 80
46 79 92 -2 68 -72 95 -140 53z"/>
<path d="M10391 6661 c-49 -49 -29 -146 37 -184 67 -39 183 19 167 83 -23 90
-152 153 -204 101z"/>
<path d="M9166 6630 c-19 -17 -40 -47 -47 -67 -11 -34 -10 -38 11 -55 19 -15
32 -18 64 -12 75 12 99 40 89 100 -13 68 -61 82 -117 34z"/>
<path d="M2224 6630 c-56 -22 -74 -118 -31 -158 51 -48 149 -10 163 63 8 43
-9 73 -51 91 -39 16 -51 16 -81 4z"/>
<path d="M8656 6609 c-38 -30 -56 -71 -56 -127 0 -121 122 -186 212 -112 44
37 73 105 64 153 -6 34 -42 75 -83 96 -36 19 -107 14 -137 -10z"/>
<path d="M10801 6604 c-11 -15 -21 -30 -21 -34 0 -16 40 -41 62 -38 20 3 23 8
23 48 0 38 -3 45 -21 48 -14 2 -29 -7 -43 -24z"/>
<path d="M11624 6603 c-34 -6 -58 -40 -57 -79 1 -29 -3 -35 -25 -39 -54 -11
-77 -29 -77 -60 0 -37 38 -61 79 -51 20 5 33 19 47 51 18 41 23 45 54 45 59 0
98 76 58 112 -22 19 -51 26 -79 21z"/>
<path d="M7995 6557 c-66 -66 -56 -117 22 -117 33 0 50 6 68 25 30 29 31 50 5
93 -25 41 -53 41 -95 -1z"/>
<path d="M3920 6571 c-138 -42 -213 -194 -142 -291 34 -46 79 -62 162 -57 80
4 126 21 172 65 33 30 54 112 44 168 -17 88 -135 145 -236 115z"/>
<path d="M5670 6558 c-30 -33 -46 -92 -32 -123 33 -72 152 -10 152 80 0 58
-79 87 -120 43z"/>
<path d="M5995 6551 c-71 -31 -81 -122 -20 -187 27 -28 39 -34 76 -34 23 0 62
9 86 21 122 59 78 198 -65 206 -32 1 -66 -1 -77 -6z"/>
<path d="M10097 6539 c-29 -22 -57 -68 -57 -93 0 -43 89 -40 136 5 28 26 30
55 8 87 -19 27 -51 28 -87 1z"/>
<path d="M4337 6537 c-18 -12 -48 -87 -41 -98 2 -4 20 -14 39 -23 64 -30 95 2
72 72 -15 45 -46 67 -70 49z"/>
<path d="M11270 6537 c-30 -10 -36 -18 -43 -55 -11 -54 -6 -67 32 -86 53 -28
114 18 114 85 0 52 -44 76 -103 56z"/>
<path d="M1827 6510 c-53 -42 -20 -140 47 -140 89 0 131 90 64 134 -42 28 -80
30 -111 6z"/>
<path d="M7571 6509 c-51 -10 -113 -48 -137 -84 -39 -60 -25 -166 30 -221 49
-49 105 -54 196 -18 97 38 157 91 165 148 13 86 -45 157 -145 176 -29 5 -55
10 -59 9 -3 -1 -26 -5 -50 -10z"/>
<path d="M9703 6501 c-48 -22 -63 -45 -63 -98 0 -38 18 -76 48 -100 20 -16
128 -17 173 -2 74 25 102 79 75 143 -29 68 -145 97 -233 57z"/>
<path d="M3515 6470 c-28 -29 -29 -32 -15 -58 9 -14 32 -33 53 -41 35 -13 40
-13 65 6 53 39 31 106 -38 118 -30 5 -39 2 -65 -25z"/>
<path d="M7055 6480 c-39 -15 -155 -163 -155 -196 0 -40 26 -80 64 -98 47 -22
150 -21 203 3 98 45 95 128 -10 264 -30 38 -57 46 -102 27z"/>
<path d="M4896 6449 c-33 -39 -37 -116 -7 -143 17 -15 22 -16 53 -3 84 35 105
127 37 162 -40 21 -54 19 -83 -16z"/>
<path d="M3223 6460 c-49 -20 -40 -92 18 -144 44 -41 79 -46 109 -16 31 31 34
63 10 119 l-22 51 -47 -1 c-25 0 -56 -4 -68 -9z"/>
<path d="M4596 6448 c-41 -58 3 -137 68 -124 42 9 56 24 56 61 0 25 -8 40 -31
59 -38 32 -73 33 -93 4z"/>
<path d="M5344 6436 c-42 -42 -46 -87 -10 -111 68 -45 167 74 108 128 -29 26
-61 20 -98 -17z"/>
<path d="M6596 6449 c-53 -13 -76 -35 -76 -74 0 -43 27 -65 79 -65 34 0 49 6
72 29 16 16 29 39 29 51 0 21 -41 71 -57 69 -4 -1 -26 -5 -47 -10z"/>
<path d="M8176 6408 c-25 -35 -20 -76 13 -109 33 -33 64 -36 116 -14 44 18 51
35 31 73 -33 64 -129 94 -160 50z"/>
<path d="M2846 6398 c-43 -60 4 -124 83 -115 77 9 89 56 28 110 -40 34 -89 37
-111 5z"/>
<path d="M2480 6369 c-61 -25 -89 -78 -51 -99 54 -29 121 1 121 54 0 51 -21
64 -70 45z"/>
<path d="M11901 6353 c-52 -52 -52 -162 0 -209 39 -35 196 -16 219 26 38 71
-51 190 -154 207 -30 5 -40 1 -65 -24z"/>
<path d="M10949 6357 c-96 -27 -139 -83 -139 -181 0 -50 4 -60 37 -97 67 -74
129 -87 218 -45 85 40 125 101 125 192 0 99 -120 164 -241 131z"/>
<path d="M1393 6289 c-71 -35 -93 -113 -48 -168 45 -53 124 -60 191 -16 31 20
64 73 64 103 0 31 -26 79 -49 92 -33 17 -113 12 -158 -11z"/>
<path d="M5157 6270 c-15 -17 -27 -40 -27 -51 0 -33 44 -69 85 -69 52 0 73 15
86 61 11 36 10 42 -8 61 -12 12 -39 22 -65 25 -40 5 -47 2 -71 -27z"/>
<path d="M8656 6279 c-20 -16 -26 -29 -26 -58 0 -54 20 -76 70 -76 35 0 47 6
71 33 34 38 36 60 8 96 -26 33 -84 36 -123 5z"/>
<path d="M6354 6256 c-56 -56 -39 -112 29 -99 59 11 84 87 40 121 -24 18 -31
16 -69 -22z"/>
<path d="M5406 6265 c-24 -25 -29 -54 -12 -79 18 -28 56 -37 103 -24 46 13 60
45 39 87 -15 28 -21 31 -66 31 -30 0 -54 -6 -64 -15z"/>
<path d="M2663 6255 c-52 -37 -9 -125 59 -125 19 0 44 7 56 16 28 20 30 74 3
98 -28 25 -91 31 -118 11z"/>
<path d="M4502 6233 c-24 -9 -43 -60 -33 -86 31 -80 151 -73 151 9 0 60 -61
100 -118 77z"/>
<path d="M2139 6201 c-66 -66 -7 -137 66 -80 22 18 26 27 21 52 -13 63 -42 73
-87 28z"/>
<path d="M10281 6204 c-12 -15 -21 -32 -21 -40 0 -7 -3 -19 -6 -27 -3 -10 8
-19 36 -31 51 -20 64 -20 85 1 21 21 13 68 -17 100 -28 30 -52 29 -77 -3z"/>
<path d="M7284 6200 c-55 -22 -70 -95 -29 -135 28 -28 63 -32 105 -10 61 32
77 89 35 130 -25 26 -70 32 -111 15z"/>
<path d="M8950 6178 c-26 -43 -25 -54 5 -83 18 -19 35 -25 70 -25 54 0 85 25
85 70 0 46 -31 70 -90 70 -46 0 -52 -3 -70 -32z"/>
<path d="M5877 6180 c-31 -25 -51 -80 -42 -120 6 -26 11 -30 41 -30 67 0 113
56 100 124 -10 50 -53 62 -99 26z"/>
<path d="M3004 6182 c-16 -11 -34 -48 -34 -72 0 -11 11 -32 25 -45 32 -33 84
-33 122 -1 24 21 26 27 18 52 -18 49 -97 89 -131 66z"/>
<path d="M3654 6180 c-28 -11 -72 -65 -80 -97 -10 -39 7 -58 55 -61 73 -6 123
68 90 131 -19 36 -31 41 -65 27z"/>
<path d="M8364 6165 c-30 -46 12 -95 80 -95 31 0 56 30 56 66 0 42 -16 54 -72
54 -40 0 -50 -4 -64 -25z"/>
<path d="M9403 6175 c-31 -22 -48 -78 -32 -107 16 -30 28 -38 60 -38 36 0 75
33 89 76 17 50 -6 84 -58 84 -21 0 -47 -7 -59 -15z"/>
<path d="M10595 6178 c-32 -18 -44 -40 -45 -79 0 -65 60 -90 114 -48 20 15 26
29 26 57 0 43 -7 55 -37 71 -27 14 -33 13 -58 -1z"/>
<path d="M8009 6156 c-42 -29 -73 -72 -65 -92 6 -16 62 -19 100 -4 17 6 29 22
37 49 22 72 -7 91 -72 47z"/>
<path d="M1790 6155 c-18 -22 -15 -73 6 -96 22 -25 69 -24 94 1 26 26 25 51
-1 84 -24 30 -78 36 -99 11z"/>
<path d="M9826 6148 c-25 -35 -20 -85 10 -115 22 -21 32 -25 66 -20 25 3 51
15 67 31 21 22 24 30 15 53 -22 63 -127 96 -158 51z"/>
<path d="M3958 6123 c-46 -12 -21 -87 36 -108 23 -8 30 -6 42 10 15 20 18 62
8 89 -6 16 -46 20 -86 9z"/>
<path d="M7737 6070 c-32 -25 -40 -50 -28 -82 11 -30 61 -53 96 -44 49 12 82
75 57 112 -24 36 -87 43 -125 14z"/>
<path d="M11455 6083 c-45 -12 -65 -34 -65 -74 0 -32 5 -42 24 -50 72 -33 163
64 108 114 -19 17 -31 19 -67 10z"/>
<path d="M4953 6039 c-107 -32 -73 -206 42 -219 56 -6 79 1 116 39 43 43 49
73 24 121 -27 51 -114 80 -182 59z"/>
<path d="M6277 6034 c-16 -9 -37 -34 -47 -57 -16 -36 -17 -45 -6 -62 20 -30
94 -33 124 -5 26 25 30 84 6 118 -18 26 -38 27 -77 6z"/>
<path d="M8224 6036 c-65 -28 -96 -104 -53 -127 28 -15 95 -5 120 17 25 23 25
78 -1 104 -23 23 -25 23 -66 6z"/>
<path d="M2388 6014 c-99 -30 -149 -117 -128 -220 14 -64 49 -104 115 -129 57
-22 145 -16 182 12 75 55 123 169 103 243 -24 90 -147 133 -272 94z"/>
<path d="M2899 5991 c-52 -52 -31 -120 32 -104 58 14 79 73 39 113 -27 27 -36
25 -71 -9z"/>
<path d="M4245 5988 c-146 -53 -107 -234 50 -232 91 2 143 45 152 128 5 37 1
48 -24 76 -27 30 -37 34 -89 36 -32 2 -72 -1 -89 -8z"/>
<path d="M7571 5981 c-50 -50 -28 -133 37 -139 65 -7 106 79 66 136 -20 28
-76 30 -103 3z"/>
<path d="M6602 5973 c-41 -20 -72 -58 -72 -89 0 -12 11 -35 24 -50 34 -40 80
-38 134 6 49 39 56 80 21 124 -24 30 -58 33 -107 9z"/>
<path d="M5524 5966 c-31 -14 -59 -59 -70 -114 -5 -24 -1 -33 21 -51 35 -27
65 -27 99 0 35 27 56 70 56 112 0 54 -49 78 -106 53z"/>
<path d="M8664 5937 c-31 -28 -37 -41 -42 -86 -4 -44 -1 -55 18 -76 19 -20 33
-25 71 -25 40 0 53 5 78 31 34 33 56 98 45 132 -13 43 -34 57 -86 57 -41 0
-54 -5 -84 -33z"/>
<path d="M6978 5948 c-26 -9 -28 -14 -28 -64 0 -49 2 -55 26 -64 79 -30 144 2
144 70 0 34 -4 42 -30 55 -33 17 -72 18 -112 3z"/>
<path d="M405 5938 c-32 -17 -45 -39 -45 -78 0 -67 66 -103 148 -81 50 14 82
52 82 97 0 28 -6 38 -32 54 -37 22 -120 27 -153 8z"/>
<path d="M4594 5906 c-35 -35 -44 -50 -44 -79 0 -23 6 -37 16 -41 46 -18 123
5 144 43 5 11 10 34 10 51 0 84 -57 96 -126 26z"/>
<path d="M9705 5936 c-103 -45 -114 -172 -19 -212 91 -38 197 8 204 87 5 58
-1 82 -29 110 -25 24 -37 29 -78 29 -26 -1 -62 -7 -78 -14z"/>
<path d="M3274 5929 c-40 -20 -57 -88 -31 -123 21 -29 104 -32 145 -7 48 31
59 62 35 103 -18 30 -23 33 -74 35 -29 1 -64 -3 -75 -8z"/>
<path d="M5897 5914 c-29 -29 -50 -83 -45 -115 2 -12 15 -31 30 -42 24 -18 32
-19 67 -8 76 22 115 129 62 172 -34 27 -83 25 -114 -7z"/>
<path d="M10056 5904 c-22 -22 -20 -60 5 -96 20 -28 26 -30 65 -25 82 9 98 54
39 106 -40 34 -84 41 -109 15z"/>
<path d="M10935 5902 c-35 -7 -55 -33 -55 -73 0 -42 26 -69 68 -69 28 0 82 51
82 77 0 44 -45 75 -95 65z"/>
<path d="M1996 5878 c-19 -27 -21 -79 -4 -96 18 -18 73 -14 91 6 37 40 9 112
-43 112 -18 0 -34 -8 -44 -22z"/>
<path d="M9126 5869 c-19 -15 -26 -30 -26 -54 0 -42 29 -65 83 -65 43 0 87 35
87 70 0 59 -91 91 -144 49z"/>
<path d="M5264 5859 c-26 -13 -54 -60 -54 -91 0 -48 54 -72 103 -47 70 36 97
98 59 132 -20 19 -75 21 -108 6z"/>
<path d="M7280 5863 c-43 -16 -56 -97 -20 -133 37 -37 152 -21 166 23 15 48
-93 130 -146 110z"/>
<path d="M8003 5858 c-33 -16 -31 -61 3 -87 49 -39 134 -17 134 34 0 50 -80
81 -137 53z"/>
<path d="M11195 5825 c-40 -39 -27 -75 28 -75 59 0 82 33 57 81 -15 27 -56 24
-85 -6z"/>
<path d="M3752 5806 c-32 -30 -37 -40 -37 -80 0 -58 20 -79 73 -78 67 1 98 32
117 113 5 19 0 32 -21 52 -39 39 -84 37 -132 -7z"/>
<path d="M1593 5798 c-59 -64 -68 -120 -20 -132 30 -7 84 8 108 30 21 19 26
83 9 115 -17 30 -61 24 -97 -13z"/>
<path d="M8209 5807 c-35 -23 -46 -56 -35 -102 13 -51 127 -54 171 -5 27 29
22 80 -10 108 -34 29 -82 28 -126 -1z"/>
<path d="M10525 5812 c-22 -11 -48 -33 -57 -50 -22 -37 -23 -110 -3 -139 43
-61 230 -49 265 16 25 48 -1 119 -61 163 -38 28 -96 32 -144 10z"/>
<path d="M1108 5810 c-41 -24 -29 -113 16 -124 40 -10 96 18 96 47 0 23 -43
77 -61 77 -4 0 -13 2 -21 5 -7 2 -21 0 -30 -5z"/>
<path d="M3552 5813 c-16 -6 -42 -57 -42 -83 0 -11 9 -29 20 -40 59 -59 162
35 116 105 -16 24 -58 32 -94 18z"/>
<path d="M11637 5789 c-46 -27 -54 -117 -12 -133 45 -17 118 7 130 44 16 52
-71 117 -118 89z"/>
<path d="M6212 5751 c-56 -19 -113 -60 -145 -103 -47 -62 15 -108 146 -108 48
0 83 6 107 18 32 15 36 23 44 73 12 78 3 107 -39 125 -43 18 -48 17 -113 -5z"/>
<path d="M3086 5728 c-21 -30 -20 -50 5 -82 43 -55 127 -18 115 52 -6 42 -19
52 -68 52 -27 0 -41 -6 -52 -22z"/>
<path d="M11431 5737 c-19 -7 -39 -20 -45 -30 -9 -15 -6 -23 18 -43 22 -20 37
-24 70 -22 33 2 42 7 44 25 4 27 -24 83 -41 82 -6 0 -27 -5 -46 -12z"/>
<path d="M8935 5720 c-64 -42 -83 -94 -40 -110 37 -14 126 5 148 32 19 22 16
60 -5 85 -16 19 -69 15 -103 -7z"/>
<path d="M7772 5718 c-7 -7 -12 -18 -12 -24 0 -21 51 -74 70 -74 40 0 70 90
34 104 -26 10 -79 7 -92 -6z"/>
<path d="M4806 5689 c-28 -33 -33 -73 -14 -113 33 -74 148 -24 148 63 0 54
-23 81 -70 81 -30 0 -43 -6 -64 -31z"/>
<path d="M5635 5706 c-64 -28 -125 -133 -125 -215 0 -78 53 -151 120 -166 17
-4 54 -1 83 6 95 23 187 143 187 244 0 102 -156 179 -265 131z"/>
<path d="M4044 5666 c-26 -26 -34 -42 -34 -71 0 -51 15 -73 54 -81 95 -17 178
103 113 164 -37 35 -91 30 -133 -12z"/>
<path d="M1771 5673 c-28 -19 -28 -72 0 -107 26 -33 75 -35 113 -5 33 26 33
41 -1 79 -36 39 -84 53 -112 33z"/>
<path d="M2853 5660 c-27 -33 -30 -82 -7 -104 43 -44 144 16 144 86 0 33 -24
48 -77 47 -30 0 -43 -6 -60 -29z"/>
<path d="M7253 5651 c-63 -39 -68 -142 -8 -157 36 -9 71 9 95 48 50 83 -9 157
-87 109z"/>
<path d="M4425 5631 c-30 -13 -54 -44 -61 -78 -5 -26 -1 -37 21 -58 21 -22 32
-26 58 -21 39 8 77 35 97 69 13 23 12 30 -3 61 -15 32 -21 36 -54 35 -21 0
-47 -4 -58 -8z"/>
<path d="M6980 5613 c-51 -19 -66 -41 -68 -96 -1 -52 0 -54 34 -70 67 -32 117
-18 133 38 22 81 -33 153 -99 128z"/>
<path d="M11153 5600 c-47 -19 -53 -80 -13 -120 43 -43 130 -8 130 51 0 58
-59 92 -117 69z"/>
<path d="M6505 5575 c-34 -33 -33 -84 1 -124 42 -51 104 -33 123 34 10 39 0
93 -21 107 -27 16 -79 8 -103 -17z"/>
<path d="M8423 5576 c-74 -35 -107 -93 -101 -180 15 -245 301 -281 384 -49 38
107 -4 202 -105 238 -62 21 -118 19 -178 -9z"/>
<path d="M9396 5574 c-20 -20 -26 -37 -26 -68 0 -22 4 -46 8 -52 40 -61 145
-15 159 70 8 51 -16 76 -72 76 -32 0 -49 -6 -69 -26z"/>
<path d="M9913 5568 c-41 -44 -56 -75 -49 -103 12 -47 89 -44 131 7 29 34 32
73 9 106 -22 31 -55 27 -91 -10z"/>
<path d="M2576 5568 c-51 -72 39 -165 109 -114 13 9 19 26 19 51 0 70 -92 115
-128 63z"/>
<path d="M7990 5573 c-32 -12 -60 -47 -60 -74 0 -65 114 -95 165 -44 30 29 33
75 6 99 -20 19 -85 30 -111 19z"/>
<path d="M5188 5554 c-36 -19 -48 -43 -48 -94 0 -81 78 -116 151 -67 58 39 64
103 14 153 -28 28 -75 31 -117 8z"/>
<path d="M10909 5547 c-42 -28 -49 -67 -20 -96 31 -31 68 -26 107 13 37 37 43
66 18 90 -22 23 -65 20 -105 -7z"/>
<path d="M11880 5557 c-37 -19 -36 -43 3 -82 41 -41 60 -44 81 -13 23 32 21
98 -1 98 -10 0 -27 3 -38 5 -11 3 -31 -1 -45 -8z"/>
<path d="M10323 5550 c-31 -13 -30 -51 3 -84 32 -32 78 -35 94 -7 16 31 13 88
-6 95 -22 8 -65 6 -91 -4z"/>
<path d="M7539 5511 c-34 -34 -37 -63 -9 -91 56 -56 174 15 139 83 -16 30 -28
37 -67 37 -24 0 -42 -9 -63 -29z"/>
<path d="M2103 5519 c-17 -17 -16 -81 1 -105 21 -28 98 -27 127 2 14 15 19 28
14 43 -14 45 -115 88 -142 60z"/>
<path d="M3282 5488 c-21 -21 -13 -46 24 -88 26 -29 44 -40 65 -40 50 0 65 60
28 111 -17 24 -27 29 -63 29 -23 0 -47 -5 -54 -12z"/>
<path d="M3558 5483 c-23 -27 -38 -59 -38 -82 0 -48 70 -77 121 -51 23 13 49
61 49 93 0 13 -8 31 -18 40 -25 23 -94 22 -114 0z"/>
<path d="M10580 5480 c-77 -77 79 -183 159 -108 12 10 21 24 21 31 0 24 -33
59 -74 78 -53 24 -81 24 -106 -1z"/>
<path d="M11320 5479 c-91 -37 -103 -139 -25 -208 61 -53 154 -53 208 0 26 26
29 35 25 74 -12 100 -119 169 -208 134z"/>
<path d="M1473 5454 c-23 -10 -15 -63 13 -89 52 -48 97 -25 98 48 l1 42 -50 2
c-27 1 -56 0 -62 -3z"/>
<path d="M2957 5445 c-75 -26 -116 -91 -102 -162 10 -54 48 -83 107 -83 117 0
193 90 155 183 -26 60 -91 86 -160 62z"/>
<path d="M8934 5450 c-27 -11 -48 -62 -40 -95 9 -34 63 -60 109 -51 41 8 65
31 73 73 12 62 -68 103 -142 73z"/>
<path d="M4862 5443 c-12 -3 -41 -21 -62 -42 -46 -44 -53 -88 -20 -121 25 -25
43 -25 97 1 105 51 93 182 -15 162z"/>
<path d="M3969 5381 c-34 -35 -37 -63 -8 -92 42 -42 139 1 139 61 0 63 -80 81
-131 31z"/>
<path d="M2460 5381 c-39 -73 38 -143 100 -93 18 14 21 25 16 45 -14 58 -93
91 -116 48z"/>
<path d="M8154 5366 c-39 -17 -74 -61 -74 -93 0 -14 13 -37 29 -54 34 -34 92
-39 141 -14 113 58 20 214 -96 161z"/>
<path d="M10114 5366 c-48 -21 -75 -63 -72 -110 2 -33 9 -44 38 -64 30 -20 44
-23 97 -20 73 5 113 29 127 76 25 89 -90 161 -190 118z"/>
<path d="M6804 5346 c-45 -20 -64 -53 -64 -107 0 -40 4 -51 31 -73 59 -50 182
-28 213 38 20 43 6 98 -33 126 -38 27 -107 34 -147 16z"/>
<path d="M705 5337 c-104 -40 -165 -119 -165 -214 0 -74 65 -155 133 -168 66
-13 168 28 229 92 46 47 58 79 58 151 0 69 -23 112 -73 135 -41 20 -137 21
-182 4z"/>
<path d="M1924 5342 c-15 -10 -34 -47 -34 -66 0 -29 42 -47 83 -35 42 11 47
31 22 79 -15 30 -46 39 -71 22z"/>
<path d="M6251 5329 c-26 -16 -31 -25 -31 -58 0 -38 19 -71 41 -71 6 0 23 7
39 15 50 26 66 79 33 107 -30 25 -49 27 -82 7z"/>
<path d="M9564 5342 c-17 -11 -34 -48 -34 -74 0 -26 34 -86 59 -105 43 -33
145 3 165 58 20 59 -52 129 -133 129 -25 0 -51 -4 -57 -8z"/>
<path d="M4309 5325 c-25 -13 -59 -69 -59 -95 0 -25 33 -72 63 -90 59 -37 170
-20 197 29 28 53 0 125 -60 156 -36 19 -107 19 -141 0z"/>
<path d="M7301 5265 c-41 -47 -41 -86 -1 -127 25 -24 36 -29 58 -23 88 21 117
101 60 163 -33 35 -79 30 -117 -13z"/>
<path d="M7731 5278 c-44 -22 -81 -68 -81 -101 0 -11 15 -34 34 -53 28 -28 42
-34 75 -34 48 0 106 22 138 52 33 31 32 100 -2 133 -32 33 -102 34 -164 3z"/>
<path d="M3699 5241 c-51 -51 -49 -75 6 -79 56 -4 78 15 79 69 1 39 -2 44 -22
47 -16 3 -35 -9 -63 -37z"/>
<path d="M5000 5264 c-23 -27 -16 -75 15 -102 23 -20 36 -23 68 -19 54 7 74
28 61 64 -19 56 -114 94 -144 57z"/>
<path d="M10616 5258 c-22 -31 -20 -74 4 -98 27 -27 100 -28 123 -2 25 28 21
50 -17 88 -41 41 -86 46 -110 12z"/>
<path d="M10946 5254 c-53 -54 -29 -134 40 -134 71 0 115 80 74 133 -29 37
-77 37 -114 1z"/>
<path d="M9164 5256 c-90 -39 -150 -135 -122 -193 27 -56 131 -104 191 -89 79
19 141 162 105 241 -23 51 -106 70 -174 41z"/>
<path d="M5423 5253 c-29 -6 -73 -58 -73 -87 0 -12 14 -44 32 -72 31 -48 31
-50 20 -113 -7 -42 -7 -71 -1 -83 26 -49 101 -47 144 4 23 28 27 39 22 81 -4
42 -1 50 19 63 33 22 56 77 45 106 -15 38 -65 78 -116 94 -49 14 -53 15 -92 7z"/>
<path d="M10414 5216 c-63 -28 -81 -86 -40 -125 46 -43 138 -23 152 34 9 34
-12 80 -42 94 -30 14 -32 13 -70 -3z"/>
<path d="M5939 5205 c-40 -22 -50 -124 -15 -147 16 -11 84 -10 106 2 28 15 42
67 29 107 -17 52 -66 68 -120 38z"/>
<path d="M2204 5186 c-8 -21 2 -55 24 -84 18 -23 19 -23 60 -6 54 21 68 44 44
74 -24 30 -118 42 -128 16z"/>
<path d="M3894 5181 c-52 -32 -62 -95 -20 -130 21 -18 91 -9 125 17 34 25 39
70 11 105 -26 33 -70 36 -116 8z"/>
<path d="M11709 5164 c-35 -22 -69 -75 -69 -107 0 -38 32 -53 81 -38 70 21
102 98 59 141 -24 24 -37 25 -71 4z"/>
<path d="M2682 5135 c-26 -19 -52 -65 -52 -94 0 -31 33 -44 80 -31 56 15 74
45 58 96 -15 45 -47 56 -86 29z"/>
<path d="M3372 5133 c-100 -35 -152 -124 -131 -222 27 -129 164 -188 294 -127
76 36 117 84 123 145 6 69 -4 115 -35 152 -54 64 -157 86 -251 52z"/>
<path d="M4634 5139 c-17 -5 -39 -18 -49 -29 -18 -19 -18 -22 -2 -56 21 -44
95 -81 127 -64 45 24 55 102 17 138 -25 23 -43 26 -93 11z"/>
<path d="M8732 5117 c-31 -33 -25 -66 17 -94 44 -30 85 -29 116 2 51 50 22
102 -61 111 -43 5 -52 3 -72 -19z"/>
<path d="M1187 5112 c-48 -29 -48 -89 -1 -110 62 -29 114 -2 114 58 0 63 -55
88 -113 52z"/>
<path d="M1632 5098 c-30 -33 -37 -73 -18 -103 14 -20 25 -25 61 -25 54 0 85
26 85 70 0 67 -84 105 -128 58z"/>
<path d="M4929 5091 c-35 -35 -36 -59 -7 -96 44 -56 123 -71 163 -30 25 24 34
86 17 111 -18 25 -60 44 -100 44 -35 0 -49 -6 -73 -29z"/>
<path d="M11216 5099 c-32 -25 -56 -69 -56 -103 0 -30 31 -42 88 -33 63 11 89
68 60 132 -14 32 -54 34 -92 4z"/>
<path d="M11439 5081 c-29 -24 -20 -45 30 -75 l32 -19 30 29 c21 20 29 36 27
54 -3 22 -8 25 -49 28 -34 2 -52 -2 -70 -17z"/>
<path d="M1883 5060 c-48 -19 -38 -101 14 -121 63 -24 139 21 109 65 -30 45
-86 71 -123 56z"/>
<path d="M9853 5055 c-43 -19 -71 -74 -55 -109 23 -51 97 -41 132 16 11 18 20
43 20 54 0 41 -49 60 -97 39z"/>
<path d="M10515 5020 c-30 -31 -27 -43 15 -77 50 -40 100 22 74 91 -10 27 -57
19 -89 -14z"/>
<path d="M4169 5017 c-39 -33 -62 -73 -54 -97 5 -16 15 -20 49 -20 60 0 96 29
96 79 0 63 -42 81 -91 38z"/>
<path d="M6975 5021 c-10 -16 14 -88 31 -95 32 -12 88 39 82 76 -3 20 -9 23
-55 26 -28 2 -54 -2 -58 -7z"/>
<path d="M6219 4995 c-52 -28 -60 -121 -12 -152 20 -14 32 -14 73 -5 47 11 51
10 74 -13 29 -29 81 -33 126 -10 55 28 79 115 42 148 -24 22 -91 22 -121 1
-22 -16 -24 -16 -33 0 -23 41 -101 57 -149 31z"/>
<path d="M2188 4982 c-67 -41 -73 -128 -12 -181 58 -51 152 -39 203 25 38 48
22 133 -30 160 -38 19 -127 18 -161 -4z"/>
<path d="M10721 4974 c-28 -36 -26 -60 8 -95 31 -31 68 -37 115 -19 56 21 50
74 -13 117 -46 31 -84 30 -110 -3z"/>
<path d="M10956 4984 c-9 -8 -16 -28 -16 -44 0 -16 7 -36 16 -44 35 -35 128
-7 122 37 -3 24 -61 67 -89 67 -10 0 -25 -7 -33 -16z"/>
<path d="M10161 4971 c-49 -49 -31 -141 28 -141 39 0 81 49 81 95 0 58 -69 86
-109 46z"/>
<path d="M6649 4951 c-52 -53 -29 -107 50 -118 35 -5 44 -2 72 26 25 25 30 37
25 59 -16 66 -96 84 -147 33z"/>
<path d="M7177 4962 c-11 -12 -17 -36 -17 -65 0 -73 46 -94 130 -61 45 18 60
51 40 88 -27 52 -120 75 -153 38z"/>
<path d="M9433 4965 c-42 -29 -38 -111 7 -135 27 -14 86 3 100 30 22 41 7 85
-37 108 -29 16 -44 15 -70 -3z"/>
<path d="M2924 4926 c-43 -43 -48 -105 -12 -130 57 -40 172 5 178 69 7 65 -20
95 -86 95 -39 0 -51 -5 -80 -34z"/>
<path d="M5822 4953 c-17 -7 -42 -57 -42 -85 0 -39 27 -68 64 -68 45 0 75 27
82 72 5 30 2 41 -19 62 -24 24 -55 31 -85 19z"/>
<path d="M8273 4928 c-84 -87 -58 -171 41 -138 44 14 66 44 66 87 0 85 -51
109 -107 51z"/>
<path d="M8522 4950 c-31 -13 -55 -71 -42 -105 16 -43 94 -59 149 -30 50 25
55 73 12 116 -31 31 -73 37 -119 19z"/>
<path d="M11870 4941 c-109 -33 -158 -118 -115 -201 36 -70 155 -96 229 -51
46 29 86 96 86 145 0 78 -107 135 -200 107z"/>
<path d="M7922 4912 c-12 -12 -24 -37 -28 -57 -9 -48 18 -85 75 -105 39 -14
44 -13 85 8 53 29 72 63 54 99 -20 40 -62 65 -116 71 -41 3 -53 1 -70 -16z"/>
<path d="M8889 4911 c-26 -21 -36 -90 -19 -131 16 -39 60 -41 95 -5 61 61 -10
189 -76 136z"/>
<path d="M11339 4871 c-110 -69 -118 -177 -14 -197 120 -22 200 40 181 141
-16 84 -86 108 -167 56z"/>
<path d="M2539 4873 c-56 -34 -78 -112 -38 -134 28 -14 82 -4 104 21 32 35 15
130 -23 130 -9 0 -29 -8 -43 -17z"/>
<path d="M4709 4850 c-9 -5 -22 -23 -29 -39 -15 -38 0 -68 45 -87 50 -20 83
-17 110 11 52 52 13 125 -67 125 -24 0 -50 -5 -59 -10z"/>
<path d="M1855 4809 c-89 -78 -87 -159 4 -159 71 0 131 44 131 97 0 92 -66
122 -135 62z"/>
<path d="M7498 4784 l-23 -45 25 -19 c75 -56 129 -5 85 80 -25 48 -60 41 -87
-16z"/>
<path d="M5405 4796 c-67 -30 -79 -90 -27 -138 75 -66 197 -7 166 80 -19 52
-88 81 -139 58z"/>
<path d="M3807 4779 c-22 -13 -47 -61 -47 -92 0 -59 81 -77 130 -28 60 59 44
131 -28 131 -20 0 -45 -5 -55 -11z"/>
<path d="M4254 4769 c-41 -12 -94 -61 -94 -88 0 -25 25 -39 84 -47 39 -6 48
-3 70 19 34 34 36 89 4 111 -12 9 -25 16 -28 15 -3 0 -19 -5 -36 -10z"/>
<path d="M9783 4761 c-53 -24 -118 -92 -134 -138 -15 -48 -6 -115 20 -149 20
-25 116 -74 145 -74 35 0 93 26 127 58 106 95 118 244 24 302 -42 26 -125 26
-182 1z"/>
<path d="M3540 4751 c-28 -54 5 -115 62 -115 42 0 88 27 88 52 0 20 -31 52
-67 71 -33 17 -71 13 -83 -8z"/>
<path d="M5120 4760 c-45 -11 -90 -61 -90 -101 0 -17 8 -44 17 -60 49 -83 223
-44 223 51 0 82 -64 129 -150 110z"/>
<path d="M10624 4741 c-22 -10 -50 -31 -62 -46 -36 -46 -25 -123 24 -166 48
-42 146 -29 201 26 39 39 42 70 14 132 -32 70 -98 90 -177 54z"/>
<path d="M6834 4722 c-69 -55 -55 -155 26 -197 38 -20 66 -19 117 4 81 37 94
122 27 180 -30 27 -42 31 -92 31 -39 0 -64 -6 -78 -18z"/>
<path d="M6102 4697 c-25 -26 -32 -42 -32 -73 0 -87 63 -113 119 -49 53 60 53
113 1 140 -41 21 -52 19 -88 -18z"/>
<path d="M1176 4698 c-9 -12 -16 -39 -16 -59 0 -66 72 -99 139 -64 37 19 44
40 25 76 -32 62 -119 89 -148 47z"/>
<path d="M8570 4702 c-16 -13 -22 -29 -23 -64 -3 -64 28 -98 89 -98 91 0 129
87 65 151 -35 35 -95 40 -131 11z"/>
<path d="M9155 4695 c-32 -31 -33 -78 -3 -99 33 -23 56 -20 89 13 28 28 36 61
23 95 -10 26 -80 21 -109 -9z"/>
<path d="M10866 4704 c-22 -21 -20 -77 2 -97 47 -43 152 0 138 56 -12 48 -106
76 -140 41z"/>
<path d="M4560 4692 c-57 -29 -74 -81 -41 -132 13 -20 74 -16 113 7 57 33 64
108 13 131 -34 16 -44 15 -85 -6z"/>
<path d="M11527 4662 c-24 -26 -22 -79 2 -92 31 -16 96 -12 121 8 29 24 20 56
-23 83 -40 24 -79 24 -100 1z"/>
<path d="M3215 4615 c-19 -20 -35 -40 -35 -45 0 -4 -3 -15 -6 -23 -15 -40 61
-61 116 -32 37 19 46 52 26 99 -20 48 -53 49 -101 1z"/>
<path d="M10175 4624 c-24 -26 -31 -52 -26 -104 3 -30 16 -40 58 -40 60 0 112
95 79 145 -23 35 -78 34 -111 -1z"/>
<path d="M2524 4621 c-44 -20 -54 -35 -54 -85 0 -91 137 -101 190 -14 22 37
19 61 -13 96 -25 27 -67 28 -123 3z"/>
<path d="M2925 4605 c-19 -20 -35 -40 -35 -45 0 -4 -3 -15 -6 -23 -8 -22 24
-47 60 -47 49 0 86 33 86 76 0 81 -46 97 -105 39z"/>
<path d="M5778 4613 c-9 -10 -21 -35 -26 -56 -10 -36 -9 -39 16 -48 55 -21 77
-21 96 0 16 17 16 25 6 55 -11 35 -43 66 -66 66 -6 0 -18 -8 -26 -17z"/>
<path d="M7204 4606 c-37 -17 -48 -48 -30 -91 32 -75 156 -61 156 17 0 42 -15
64 -51 77 -39 13 -37 13 -75 -3z"/>
<path d="M11079 4597 c-19 -12 -43 -39 -54 -59 -16 -30 -17 -39 -6 -52 27 -32
126 -11 142 31 15 40 -7 103 -36 103 -7 0 -27 -10 -46 -23z"/>
<path d="M8883 4585 c-47 -33 -33 -113 24 -140 97 -47 183 61 102 129 -35 30
-92 35 -126 11z"/>
<path d="M9442 4583 c-5 -10 -7 -33 -5 -51 5 -32 6 -33 52 -30 58 4 65 26 23
68 -34 34 -57 38 -70 13z"/>
<path d="M4710 4577 c-35 -18 -58 -93 -39 -133 36 -76 189 -7 189 85 0 46 -94
76 -150 48z"/>
<path d="M6403 4582 c-18 -12 -34 -61 -27 -87 10 -40 39 -58 81 -52 43 7 63
29 63 67 0 54 -74 100 -117 72z"/>
<path d="M11265 4577 c-29 -22 -24 -85 10 -114 39 -34 121 -26 152 13 39 52
-106 142 -162 101z"/>
<path d="M3490 4567 c-32 -16 -48 -69 -30 -102 18 -33 88 -59 136 -51 93 18
116 126 33 155 -42 15 -108 14 -139 -2z"/>
<path d="M5504 4569 c-70 -20 -123 -119 -103 -191 27 -101 150 -102 237 -3 25
27 32 45 32 76 0 45 -22 94 -48 107 -29 16 -85 21 -118 11z"/>
<path d="M7875 4556 c-42 -42 -55 -122 -31 -181 28 -66 130 -86 216 -42 78 38
85 94 23 167 -67 78 -161 103 -208 56z"/>
<path d="M2195 4520 c-11 -12 -19 -36 -19 -57 0 -66 73 -96 128 -52 34 27 33
42 -6 84 -43 45 -78 53 -103 25z"/>
<path d="M8369 4511 c-39 -39 -40 -96 -3 -140 22 -27 32 -31 74 -31 70 0 110
35 110 95 0 32 -7 51 -26 74 -22 27 -32 31 -76 31 -41 0 -54 -5 -79 -29z"/>
<path d="M4361 4489 c-25 -24 -31 -39 -31 -73 0 -49 13 -66 52 -66 64 0 111
48 111 111 0 64 -79 81 -132 28z"/>
<path d="M5963 4500 c-51 -31 -57 -108 -14 -169 60 -84 201 -45 201 56 0 103
-102 165 -187 113z"/>
<path d="M7591 4474 c-28 -36 -26 -76 5 -113 21 -26 33 -31 69 -31 57 0 90 13
110 44 15 23 15 27 0 56 -36 69 -144 95 -184 44z"/>
<path d="M8696 4468 c-23 -33 -20 -75 9 -103 30 -31 73 -32 109 -4 42 33 31
86 -24 114 -41 21 -76 19 -94 -7z"/>
<path d="M6672 4464 c-15 -10 -22 -25 -22 -46 0 -31 34 -98 51 -98 5 0 9 -15
9 -33 0 -65 56 -86 109 -41 38 32 40 67 6 99 -20 18 -24 29 -19 49 5 20 0 32
-24 56 -34 34 -74 39 -110 14z"/>
<path d="M11885 4456 c-42 -19 -68 -51 -68 -86 0 -39 29 -70 66 -70 38 0 95
27 108 53 17 31 -6 95 -37 107 -31 12 -32 12 -69 -4z"/>
<path d="M4033 4445 c-33 -23 -65 -81 -61 -112 2 -22 9 -29 32 -31 69 -8 116
28 116 89 0 61 -41 86 -87 54z"/>
<path d="M5203 4416 c-39 -18 -56 -48 -56 -100 0 -54 36 -86 99 -86 34 0 51 6
69 25 36 35 34 95 -2 134 -34 37 -68 45 -110 27z"/>
<path d="M7336 4400 c-42 -37 -64 -93 -46 -115 14 -17 57 -19 94 -5 24 9 26
14 26 68 0 53 -11 82 -32 82 -4 0 -23 -14 -42 -30z"/>
<path d="M10803 4410 c-40 -24 -65 -62 -61 -92 3 -20 9 -23 56 -26 47 -3 56 0
82 27 71 70 9 144 -77 91z"/>
<path d="M11481 4404 c-12 -15 -21 -34 -21 -44 0 -34 39 -70 75 -70 46 0 65
22 65 76 0 39 -3 46 -26 54 -43 17 -71 12 -93 -16z"/>
<path d="M9277 4396 c-50 -18 -74 -41 -87 -82 -25 -75 16 -134 99 -142 68 -6
115 4 150 34 39 32 46 70 25 124 -13 33 -26 47 -58 61 -48 22 -77 23 -129 5z"/>
<path d="M10502 4388 c-7 -7 -12 -24 -12 -38 0 -35 17 -50 60 -50 39 0 80 23
80 45 0 39 -99 72 -128 43z"/>
<path d="M2898 4373 c-36 -14 -38 -18 -38 -59 0 -38 4 -45 30 -59 67 -34 124
-6 124 62 0 25 -7 41 -23 54 -28 23 -44 23 -93 2z"/>
<path d="M6986 4368 c-37 -53 -4 -108 65 -108 40 0 78 14 91 33 11 17 -13 56
-47 77 -44 27 -90 26 -109 -2z"/>
<path d="M1493 4374 c-20 -9 -35 -68 -24 -97 14 -35 46 -50 94 -44 55 8 84 38
71 74 -17 49 -94 86 -141 67z"/>
<path d="M6370 4351 c-29 -8 -49 -54 -49 -117 -1 -34 3 -43 24 -52 34 -16 50
-15 85 3 57 29 76 102 39 149 -21 27 -48 31 -99 17z"/>
<path d="M10230 4340 c-18 -18 -21 -30 -17 -62 6 -44 31 -78 58 -78 9 0 31 16
49 36 25 29 30 42 25 63 -8 35 -24 49 -62 57 -24 5 -36 1 -53 -16z"/>
<path d="M1987 4320 c-33 -26 -52 -82 -37 -109 35 -66 160 -17 160 62 0 63
-69 89 -123 47z"/>
<path d="M9899 4281 c-33 -34 -37 -70 -11 -94 43 -39 125 1 125 61 0 67 -62
85 -114 33z"/>
<path d="M11143 4295 c-24 -17 -53 -93 -53 -142 0 -24 9 -44 33 -70 29 -31 41
-37 88 -41 100 -8 188 36 205 102 10 41 -12 106 -36 106 -10 0 -55 14 -100 30
-93 34 -107 36 -137 15z"/>
<path d="M4610 4293 c-33 -13 -50 -37 -50 -73 0 -47 25 -70 74 -70 l38 0 -6
-44 c-6 -40 -4 -46 20 -65 34 -27 42 -26 117 5 47 20 71 25 105 20 42 -6 43
-5 59 31 15 36 14 38 -10 59 -40 35 -113 40 -230 17 -26 -5 -28 -3 -18 15 16
30 14 48 -11 76 -24 26 -62 39 -88 29z"/>
<path d="M3722 4278 c-7 -7 -12 -34 -12 -61 l0 -50 45 5 c53 6 75 22 75 53 0
45 -78 83 -108 53z"/>
<path d="M8930 4261 c-16 -31 -12 -89 11 -133 12 -23 27 -60 33 -82 10 -35 16
-41 43 -44 23 -2 40 5 66 28 58 50 59 122 2 136 -20 5 -25 12 -25 38 0 44 -35
76 -83 76 -26 0 -39 -6 -47 -19z"/>
<path d="M9621 4201 c-17 -16 -35 -42 -41 -57 -16 -40 17 -67 69 -58 53 9 71
30 71 79 0 70 -44 87 -99 36z"/>
<path d="M6522 4175 c-55 -24 -79 -108 -42 -145 31 -31 76 -26 116 14 73 73
18 171 -74 131z"/>
<path d="M10863 4170 c-32 -19 -63 -66 -63 -94 0 -27 46 -49 87 -43 54 9 86
44 79 86 -6 38 -31 71 -55 71 -9 0 -30 -9 -48 -20z"/>
<path d="M5554 4166 c-35 -15 -72 -58 -80 -93 -28 -112 148 -201 232 -118 19
19 24 35 24 72 0 104 -92 177 -176 139z"/>
<path d="M2608 4159 c-25 -14 -24 -80 0 -102 32 -30 123 -16 137 21 8 22 -18
57 -58 76 -40 18 -55 19 -79 5z"/>
<path d="M4347 4159 c-44 -26 -61 -129 -29 -169 16 -19 24 -22 55 -16 48 9 77
50 77 109 0 37 -5 49 -26 66 -30 23 -50 26 -77 10z"/>
<path d="M8553 4160 c-51 -21 -9 -120 50 -120 33 0 48 21 54 74 5 39 3 44 -18
49 -32 9 -59 8 -86 -3z"/>
<path d="M4050 4147 c-31 -16 -70 -73 -70 -103 0 -58 75 -82 136 -45 61 37 66
129 9 151 -34 13 -45 12 -75 -3z"/>
<path d="M7344 4140 c-63 -25 -95 -118 -54 -155 30 -28 108 -31 148 -6 29 19
32 25 32 71 0 81 -54 119 -126 90z"/>
<path d="M3385 4123 c-64 -17 -99 -76 -70 -119 22 -34 56 -39 108 -16 46 20
67 45 67 80 0 37 -58 67 -105 55z"/>
<path d="M10435 4118 c-44 -24 -61 -82 -31 -107 43 -36 149 -19 160 26 16 61
-69 114 -129 81z"/>
<path d="M6125 4098 c-11 -6 -34 -26 -52 -45 l-32 -34 -33 17 c-18 9 -50 17
-72 17 -52 0 -96 -45 -96 -98 0 -90 121 -113 194 -36 25 26 31 28 56 18 45
-17 81 0 108 53 12 24 22 51 22 60 0 41 -57 70 -95 48z"/>
<path d="M7886 4085 c-42 -22 -55 -44 -56 -92 0 -37 4 -44 30 -58 41 -21 82
-19 121 8 28 19 35 30 37 63 2 28 -3 48 -15 63 -24 29 -80 36 -117 16z"/>
<path d="M8162 4080 c-44 -20 -62 -48 -62 -98 0 -115 241 -157 295 -51 17 32
20 92 5 118 -25 48 -161 66 -238 31z"/>
<path d="M9983 4080 c-41 -24 -53 -48 -53 -103 0 -60 32 -106 91 -131 58 -23
127 -16 167 19 23 20 27 31 27 78 0 62 -19 97 -75 135 -42 28 -112 30 -157 2z"/>
<path d="M1050 4063 c-21 -11 -36 -27 -38 -39 -4 -30 43 -66 81 -62 41 4 53
27 41 75 -11 45 -32 52 -84 26z"/>
<path d="M6965 4057 c-56 -19 -97 -41 -118 -65 -21 -23 -25 -90 -8 -135 6 -16
11 -41 11 -57 0 -31 42 -73 97 -97 71 -29 178 -8 225 44 31 34 58 107 58 159
0 60 -27 107 -78 137 -41 24 -135 31 -187 14z"/>
<path d="M11591 4046 c-7 -8 -15 -30 -18 -49 -5 -35 -4 -36 36 -47 74 -20 106
25 60 84 -22 28 -60 34 -78 12z"/>
<path d="M7580 4039 c-32 -13 -40 -26 -40 -72 0 -33 4 -39 34 -54 48 -22 84
-11 102 32 16 40 6 78 -25 94 -24 13 -38 13 -71 0z"/>
<path d="M9409 3991 c-40 -41 -35 -65 14 -69 50 -4 69 12 65 57 -4 49 -37 54
-79 12z"/>
<path d="M2301 3983 c-68 -34 -89 -109 -51 -183 64 -126 210 -87 210 55 0 104
-79 168 -159 128z"/>
<path d="M3776 3978 c-34 -49 -14 -75 49 -64 32 6 35 9 29 34 -14 56 -50 70
-78 30z"/>
<path d="M5123 3978 c-33 -16 -47 -59 -33 -102 15 -47 37 -58 104 -50 62 7 86
31 86 83 0 62 -89 102 -157 69z"/>
<path d="M11145 3948 c-52 -28 -59 -75 -18 -108 52 -41 143 1 143 65 0 45 -75
71 -125 43z"/>
<path d="M6336 3928 c-14 -8 -46 -64 -46 -81 0 -11 61 -28 86 -25 23 2 30 9
32 30 6 51 -36 96 -72 76z"/>
<path d="M2860 3909 c-97 -44 -166 -145 -158 -231 11 -112 126 -158 264 -107
68 26 144 94 144 130 0 90 -70 200 -138 219 -50 14 -60 13 -112 -11z"/>
<path d="M4563 3908 c-25 -12 -53 -65 -53 -100 0 -74 86 -94 146 -34 80 80 8
183 -93 134z"/>
<path d="M10820 3889 c-49 -20 -52 -50 -9 -90 38 -35 83 -39 99 -9 7 12 8 39
4 65 -6 42 -8 45 -38 44 -17 0 -42 -5 -56 -10z"/>
<path d="M10439 3847 c-36 -24 -56 -64 -45 -92 5 -14 15 -17 52 -12 72 8 103
53 74 108 -14 25 -39 24 -81 -4z"/>
<path d="M9682 3848 c-18 -18 -15 -42 9 -72 39 -50 93 -23 101 49 3 29 2 30
-47 33 -30 2 -55 -2 -63 -10z"/>
<path d="M1490 3793 c-46 -24 -80 -76 -80 -122 1 -99 120 -123 196 -39 30 32
54 82 54 111 0 56 -101 86 -170 50z"/>
<path d="M7445 3798 c-34 -18 -73 -59 -85 -88 -24 -58 29 -92 110 -70 56 15
80 41 80 88 0 69 -48 102 -105 70z"/>
<path d="M3449 3765 c-14 -7 -34 -29 -44 -49 -16 -29 -17 -37 -6 -50 17 -20
70 -21 99 0 28 19 30 74 4 97 -22 20 -20 20 -53 2z"/>
<path d="M9274 3766 c-55 -24 -55 -54 1 -80 79 -38 129 -9 101 59 -12 28 -20
35 -43 35 -15 -1 -42 -7 -59 -14z"/>
<path d="M4844 3751 c-68 -41 -99 -125 -58 -156 41 -31 160 -10 183 33 19 36
13 87 -14 116 -29 31 -67 34 -111 7z"/>
<path d="M6009 3738 c-35 -57 -9 -118 50 -118 55 0 69 10 81 58 11 45 11 47
-17 69 -43 35 -88 31 -114 -9z"/>
<path d="M11565 3764 c-68 -16 -101 -37 -133 -86 -53 -80 -55 -159 -5 -218 36
-44 77 -61 139 -61 119 0 188 77 182 203 -4 71 -20 104 -69 139 -26 19 -82 30
-114 23z"/>
<path d="M8695 3696 c-80 -86 -33 -182 78 -157 99 23 128 101 62 167 -38 38
-98 34 -140 -10z"/>
<path d="M9640 3708 c-56 -29 -77 -67 -60 -109 15 -35 48 -46 99 -30 77 23
111 102 62 143 -30 24 -47 23 -101 -4z"/>
<path d="M4052 3704 c-56 -39 -2 -184 69 -184 40 0 79 50 79 101 0 41 -14 78
-34 91 -20 13 -91 8 -114 -8z"/>
<path d="M6558 3694 c-45 -24 -64 -84 -36 -112 22 -22 83 -14 112 14 28 29 35
81 14 102 -16 16 -57 15 -90 -4z"/>
<path d="M10560 3693 c-44 -23 -60 -54 -60 -119 0 -41 5 -55 24 -73 60 -56
195 -44 240 21 63 90 -99 225 -204 171z"/>
<path d="M1863 3675 c-12 -9 -27 -31 -32 -51 -25 -90 50 -146 150 -113 73 25
88 65 43 119 -49 57 -116 76 -161 45z"/>
<path d="M5410 3642 c-63 -31 -78 -106 -25 -130 77 -35 168 2 168 68 0 24 -7
40 -27 57 -32 27 -68 29 -116 5z"/>
<path d="M7849 3637 c-26 -18 -35 -31 -37 -58 -3 -31 3 -41 37 -72 22 -20 55
-39 74 -42 81 -15 154 76 117 146 -28 51 -133 65 -191 26z"/>
<path d="M4401 3629 c-19 -13 -46 -46 -60 -74 -36 -68 -37 -192 -4 -246 28
-44 65 -64 117 -63 91 2 176 56 218 138 27 52 30 152 5 189 -24 37 -96 67
-174 74 -60 4 -72 2 -102 -18z"/>
<path d="M8190 3621 c-36 -10 -57 -74 -35 -107 25 -39 73 -27 100 26 22 43 19
69 -11 80 -14 6 -26 10 -27 9 -1 -1 -13 -4 -27 -8z"/>
<path d="M10121 3614 c-33 -23 -53 -77 -45 -120 8 -42 28 -54 89 -54 73 0 116
56 101 134 -10 53 -93 76 -145 40z"/>
<path d="M6760 3581 c-17 -33 -12 -89 10 -111 22 -22 81 -27 124 -10 20 7 26
17 26 38 0 69 -131 137 -160 83z"/>
<path d="M10936 3569 c-32 -37 -32 -53 -5 -80 17 -17 29 -20 61 -16 51 7 68
22 68 63 0 66 -79 87 -124 33z"/>
<path d="M3652 3554 c-47 -33 -68 -119 -38 -159 22 -31 89 -26 124 8 22 23 27
36 27 78 0 41 -4 54 -24 70 -28 23 -59 24 -89 3z"/>
<path d="M5632 3542 c-73 -38 -81 -111 -17 -138 31 -12 39 -12 70 1 64 26 83
119 29 144 -33 15 -44 14 -82 -7z"/>
<path d="M6343 3526 c-16 -14 -38 -43 -48 -66 -26 -58 -14 -75 55 -75 45 1 56
5 76 29 28 32 31 81 8 114 -20 29 -55 28 -91 -2z"/>
<path d="M9822 3508 c-21 -21 -15 -85 10 -102 50 -35 132 -8 126 42 -6 50
-103 93 -136 60z"/>
<path d="M3210 3452 c-49 -26 -100 -104 -100 -152 0 -50 20 -65 85 -64 58 1
106 24 126 60 18 35 6 120 -21 149 -28 30 -44 31 -90 7z"/>
<path d="M6594 3431 c-69 -42 -98 -125 -49 -137 95 -24 179 63 129 134 -19 27
-39 28 -80 3z"/>
<path d="M7060 3439 c-63 -26 -97 -93 -64 -130 34 -38 99 -17 129 41 21 40 19
66 -7 84 -26 18 -25 18 -58 5z"/>
<path d="M7374 3431 c-85 -39 -110 -117 -55 -172 27 -26 36 -29 95 -29 113 0
156 31 156 113 0 40 -5 53 -29 78 -25 24 -38 29 -78 29 -26 0 -66 -9 -89 -19z"/>
<path d="M2762 3417 c-102 -37 -160 -170 -116 -263 26 -54 61 -77 111 -71 59
6 105 45 142 118 55 110 36 195 -47 219 -44 12 -48 12 -90 -3z"/>
<path d="M5243 3365 c-27 -27 -34 -41 -31 -66 9 -88 182 -100 204 -14 16 65
-24 115 -92 115 -39 0 -51 -5 -81 -35z"/>
<path d="M9204 3381 c-50 -31 -95 -92 -92 -125 4 -38 26 -51 73 -42 57 11 105
63 105 114 0 40 -19 72 -43 72 -7 0 -26 -9 -43 -19z"/>
<path d="M5002 3373 c-33 -13 -55 -106 -30 -131 37 -37 118 19 118 80 0 19 -5
39 -12 46 -12 12 -52 15 -76 5z"/>
<path d="M5988 3357 c-73 -62 -59 -147 25 -147 89 0 139 89 82 145 -30 31 -72
32 -107 2z"/>
<path d="M8417 3365 c-63 -33 -107 -70 -107 -92 0 -13 13 -37 28 -55 24 -26
36 -31 73 -31 76 0 129 52 129 126 0 58 -62 84 -123 52z"/>
<path d="M2104 3339 c-28 -10 -38 -52 -22 -87 26 -54 148 -35 148 23 0 39 -82
81 -126 64z"/>
<path d="M6832 3308 c-33 -33 2 -98 53 -98 29 0 65 28 65 50 0 42 -88 78 -118
48z"/>
<path d="M11285 3298 c-32 -17 -45 -39 -45 -79 0 -43 20 -55 70 -44 35 8 80
58 80 89 0 37 -62 58 -105 34z"/>
<path d="M6214 3281 c-83 -51 -50 -150 43 -126 56 14 95 99 61 133 -18 18 -69
14 -104 -7z"/>
<path d="M9513 3290 c-32 -13 -44 -44 -41 -102 2 -41 8 -55 29 -70 74 -55 239
-14 239 60 0 25 -82 97 -127 110 -46 14 -69 14 -100 2z"/>
<path d="M10103 3281 c-46 -21 -63 -45 -63 -88 0 -74 76 -126 150 -104 89 27
134 143 74 190 -34 27 -104 27 -161 2z"/>
<path d="M5711 3246 c-52 -29 -66 -96 -26 -122 34 -22 109 -14 138 15 27 27
29 88 2 107 -24 18 -82 17 -114 0z"/>
<path d="M7940 3193 c-32 -12 -50 -37 -50 -68 0 -43 30 -69 78 -68 64 2 119
88 77 123 -16 14 -83 22 -105 13z"/>
<path d="M634 3141 c-91 -41 -111 -106 -50 -167 29 -29 41 -34 79 -34 60 0
142 28 172 58 27 27 33 78 14 114 -25 47 -141 63 -215 29z"/>
<path d="M8700 3144 c-47 -20 -68 -41 -95 -94 -49 -96 -41 -196 20 -257 30
-30 39 -33 89 -33 68 0 100 15 149 69 69 76 84 198 34 273 -37 54 -126 73
-197 42z"/>
<path d="M6611 3131 c-33 -33 -28 -77 12 -102 57 -35 117 -10 119 50 1 41 -19
61 -69 68 -33 4 -45 1 -62 -16z"/>
<path d="M6997 3112 c-22 -24 -22 -66 -1 -87 13 -13 28 -15 68 -10 74 10 99
52 56 95 -27 27 -100 28 -123 2z"/>
<path d="M11866 3119 c-37 -10 -46 -24 -46 -71 0 -47 24 -73 80 -88 53 -14
144 9 161 41 30 57 -112 142 -195 118z"/>
<path d="M3810 3082 c-21 -17 -21 -19 -7 -55 14 -32 20 -37 49 -37 19 0 39 5
46 12 18 18 14 56 -8 78 -25 25 -51 25 -80 2z"/>
<path d="M10783 3089 c-33 -12 -54 -51 -60 -111 -4 -43 -2 -58 14 -76 22 -28
85 -38 158 -28 111 17 113 109 3 187 -37 26 -87 39 -115 28z"/>
<path d="M7468 3063 c-14 -17 -38 -76 -38 -94 0 -16 61 -40 93 -37 27 3 33 8
35 32 5 40 -5 73 -28 96 -25 25 -42 25 -62 3z"/>
<path d="M5233 3035 c-44 -19 -44 -54 -2 -90 60 -50 116 -13 102 68 -5 34 -9
37 -37 37 -17 -1 -46 -7 -63 -15z"/>
<path d="M9815 3029 c-38 -11 -55 -34 -55 -76 0 -26 6 -36 30 -48 64 -33 140
-3 140 56 0 28 -29 69 -49 69 -5 0 -15 2 -23 4 -7 2 -26 0 -43 -5z"/>
<path d="M10418 3009 c-20 -11 -25 -78 -8 -109 8 -15 16 -17 45 -10 88 20 108
66 46 107 -37 25 -57 28 -83 12z"/>
<path d="M5917 2966 c-96 -35 -147 -95 -147 -173 1 -54 33 -119 72 -143 28
-18 43 -21 106 -16 107 8 143 31 181 116 28 62 28 139 -1 175 -41 52 -130 70
-211 41z"/>
<path d="M6422 2944 c-43 -30 -17 -124 36 -124 9 0 32 9 50 20 24 15 32 27 32
47 0 34 -8 46 -37 62 -30 15 -54 14 -81 -5z"/>
<path d="M2268 2926 c-22 -22 -32 -71 -18 -95 28 -53 106 -65 151 -25 27 25
23 49 -13 89 -39 42 -95 57 -120 31z"/>
<path d="M4571 2906 c-13 -20 -21 -50 -21 -75 0 -36 4 -43 27 -52 55 -21 113
28 113 95 0 40 -28 66 -71 66 -20 0 -33 -9 -48 -34z"/>
<path d="M2933 2920 c-28 -12 -53 -60 -53 -103 0 -53 40 -87 102 -87 100 0
154 47 128 110 -24 59 -123 103 -177 80z"/>
<path d="M6776 2900 c-71 -63 -49 -138 37 -127 60 8 87 31 87 75 0 82 -60 108
-124 52z"/>
<path d="M7032 2880 c-26 -11 -52 -65 -52 -109 0 -25 5 -32 26 -37 36 -9 68 9
87 49 23 47 21 73 -5 91 -25 18 -25 18 -56 6z"/>
<path d="M4123 2870 c-36 -15 -57 -57 -57 -117 -1 -46 3 -58 23 -74 28 -23 62
-24 101 -4 94 48 31 234 -67 195z"/>
<path d="M3456 2844 c-3 -9 -6 -31 -6 -50 0 -31 3 -34 28 -34 32 0 72 32 72
59 0 33 -82 56 -94 25z"/>
<path d="M9905 2806 c-43 -19 -85 -71 -85 -107 0 -85 159 -122 231 -53 25 24
29 35 29 80 0 45 -4 56 -26 73 -31 25 -102 28 -149 7z"/>
<path d="M1494 2794 c-91 -44 -158 -143 -158 -229 0 -62 23 -107 71 -140 43
-29 108 -33 152 -11 59 31 126 125 150 211 9 34 7 46 -14 92 -38 85 -121 117
-201 77z"/>
<path d="M7803 2785 c-34 -24 -32 -72 3 -81 37 -9 79 24 79 62 0 25 -4 29 -30
32 -16 1 -40 -4 -52 -13z"/>
<path d="M11331 2755 c-32 -14 -33 -17 -28 -55 7 -56 22 -70 73 -70 33 0 46 5
58 22 22 31 20 74 -4 98 -23 23 -52 25 -99 5z"/>
<path d="M7300 2720 c-29 -29 -28 -109 3 -138 34 -32 77 -44 127 -37 104 16
126 55 68 121 -60 68 -158 94 -198 54z"/>
<path d="M8203 2699 c-43 -12 -73 -53 -73 -98 0 -46 21 -76 70 -101 47 -24 58
-25 110 -4 100 40 88 174 -18 204 -43 11 -46 11 -89 -1z"/>
<path d="M10298 2694 c-72 -39 -58 -124 20 -124 44 0 81 19 98 51 19 37 18 45
-6 69 -24 24 -73 26 -112 4z"/>
<path d="M9418 2674 c-35 -18 -37 -59 -7 -98 23 -29 55 -33 108 -15 53 19 70
84 29 113 -28 20 -94 20 -130 0z"/>
<path d="M6693 2670 c-29 -12 -43 -40 -43 -89 0 -61 15 -90 57 -107 46 -20
109 -12 155 19 61 41 46 104 -34 151 -50 29 -104 39 -135 26z"/>
<path d="M10915 2596 c-46 -20 -97 -82 -93 -114 2 -23 9 -28 37 -30 69 -7 135
43 129 98 -4 45 -33 63 -73 46z"/>
<path d="M5996 2584 c-47 -46 24 -110 78 -71 25 18 13 53 -24 72 -36 18 -35
18 -54 -1z"/>
<path d="M8940 2548 c-19 -13 -45 -41 -57 -63 -22 -39 -22 -40 -3 -60 24 -25
25 -38 5 -55 -18 -15 -11 -30 14 -30 10 0 32 -7 47 -15 49 -25 96 -19 130 16
26 27 29 37 29 94 0 59 -3 67 -30 95 -43 42 -90 49 -135 18z"/>
<path d="M5530 2533 c-43 -16 -95 -89 -83 -118 5 -14 15 -16 47 -12 66 9 103
66 76 118 -11 20 -15 21 -40 12z"/>
<path d="M3814 2486 c-63 -28 -94 -109 -64 -167 39 -72 190 -62 227 16 15 32
16 40 3 78 -12 34 -24 46 -60 65 -51 25 -63 26 -106 8z"/>
<path d="M2320 2463 c-36 -13 -70 -57 -70 -89 0 -64 82 -98 139 -58 23 17 51
70 51 99 0 40 -67 67 -120 48z"/>
<path d="M7741 2431 c-26 -50 -26 -68 -2 -76 22 -7 46 1 84 27 46 33 32 72
-31 84 -28 6 -32 3 -51 -35z"/>
<path d="M9506 2428 c-39 -46 -41 -50 -26 -79 19 -35 78 -22 133 29 49 46 28
92 -42 92 -22 0 -38 -10 -65 -42z"/>
<path d="M9955 2420 c-18 -20 -18 -21 2 -48 55 -74 108 -67 108 14 l0 49 -46
3 c-35 2 -49 -2 -64 -18z"/>
<path d="M11465 2433 c-43 -11 -58 -35 -50 -83 4 -25 7 -59 7 -77 0 -33 14
-43 80 -57 39 -9 119 11 145 36 29 27 30 76 2 112 -36 46 -131 82 -184 69z"/>
<path d="M4836 2414 c-31 -31 -18 -87 25 -109 38 -20 53 -19 85 8 35 30 27 69
-19 97 -39 24 -70 25 -91 4z"/>
<path d="M10406 2345 c-37 -34 -35 -70 5 -91 78 -40 181 45 121 99 -29 26 -94
22 -126 -8z"/>
<path d="M5845 2195 c-29 -28 -31 -51 -9 -83 21 -31 87 -31 108 0 52 73 -36
146 -99 83z"/>
<path d="M6286 2209 c-43 -12 -66 -38 -66 -75 0 -62 68 -83 131 -41 79 53 28
144 -65 116z"/>
<path d="M5492 2180 c-31 -13 -37 -36 -18 -66 23 -35 61 -51 81 -34 20 17 21
100 1 100 -8 0 -20 2 -28 4 -7 3 -23 1 -36 -4z"/>
<path d="M8645 2168 c-25 -23 -49 -81 -37 -92 3 -3 25 -6 49 -6 33 0 50 6 68
25 62 62 -13 131 -80 73z"/>
<path d="M9951 2147 c-38 -19 -47 -41 -33 -79 10 -26 9 -35 -3 -48 -8 -9 -15
-29 -15 -43 0 -20 6 -28 26 -33 36 -9 151 4 184 21 32 17 40 33 40 84 0 83
-117 141 -199 98z"/>
<path d="M8100 2070 c-26 -26 -25 -60 1 -94 41 -53 119 -21 119 48 0 60 -77
89 -120 46z"/>
<path d="M10600 2064 c-49 -21 -70 -42 -96 -99 -62 -131 -3 -285 108 -285 48
0 125 30 166 66 125 107 106 268 -37 319 -54 19 -96 19 -141 -1z"/>
<path d="M9555 1984 c-43 -46 -29 -74 35 -74 50 0 63 46 24 85 -21 21 -31 19
-59 -11z"/>
<path d="M9140 1953 c-59 -24 -120 -95 -120 -137 0 -59 125 -62 187 -4 29 27
39 78 21 114 -18 36 -46 45 -88 27z"/>
<path d="M7154 1926 c-55 -55 -43 -106 27 -106 49 0 89 32 89 71 0 77 -57 94
-116 35z"/>
<path d="M5363 1825 c-45 -32 -17 -113 40 -116 64 -3 100 19 95 59 -6 50 -94
87 -135 57z"/>
<path d="M8523 1743 c-32 -6 -73 -59 -73 -94 0 -43 23 -92 55 -117 51 -40 168
-23 195 27 30 58 -3 136 -72 170 -43 20 -60 23 -105 14z"/>
<path d="M9802 1544 c-32 -22 -30 -76 3 -98 34 -23 71 -20 89 6 19 27 21 79 4
96 -17 17 -69 15 -96 -4z"/>
<path d="M9109 1469 c-43 -25 -73 -71 -64 -99 18 -55 89 -62 152 -14 26 20 33
32 33 60 0 40 -29 74 -62 74 -13 0 -39 -10 -59 -21z"/>
</g>
</svg>
