<?xml version="1.0" standalone="no"?>
<!DOCTYPE svg PUBLIC "-//W3C//DTD SVG 20010904//EN"
 "http://www.w3.org/TR/2001/REC-SVG-20010904/DTD/svg10.dtd">
<svg version="1.0" xmlns="http://www.w3.org/2000/svg"
 width="1046.000000pt" height="1280.000000pt" viewBox="0 0 1046.000000 1280.000000"
 preserveAspectRatio="xMidYMid meet">
<metadata>
Created by potrace 1.15, written by Peter Selinger 2001-2017
</metadata>
<g transform="translate(0.000000,1280.000000) scale(0.100000,-0.100000)"
fill="hsl(154, 71%, 59%)" stroke="none">
<path d="M109 12777 c-137 -92 -144 -439 -12 -689 69 -131 149 -198 238 -198
163 0 228 312 126 602 -83 233 -240 361 -352 285z"/>
<path d="M874 12380 c-26 -10 -71 -63 -88 -105 -76 -180 -12 -521 125 -670 53
-58 86 -75 142 -75 36 0 49 6 75 33 55 56 75 118 80 242 5 129 -11 225 -58
342 -70 175 -183 271 -276 233z"/>
<path d="M1550 12013 c-100 -36 -147 -253 -101 -463 57 -255 206 -412 309
-325 108 90 113 415 10 620 -61 121 -153 192 -218 168z"/>
<path d="M2121 11655 c-53 -45 -74 -121 -74 -265 0 -174 37 -303 117 -409 94
-126 207 -81 245 97 39 183 -31 457 -144 561 -54 50 -97 55 -144 16z"/>
<path d="M154 11478 c-43 -11 -97 -74 -125 -144 -19 -50 -23 -78 -23 -184 -1
-149 17 -235 77 -359 153 -318 406 -263 425 93 11 215 -63 427 -189 540 -28
25 -54 46 -58 46 -3 0 -22 4 -41 8 -19 5 -49 5 -66 0z"/>
<path d="M2684 11361 c-19 -11 -40 -39 -55 -72 -22 -49 -24 -66 -23 -199 0
-129 3 -154 27 -226 62 -187 167 -273 240 -196 47 49 61 103 61 247 1 151 -16
231 -72 338 -54 105 -119 145 -178 108z"/>
<path d="M860 11118 c-46 -32 -79 -102 -97 -205 -33 -186 31 -429 145 -555
112 -124 240 -77 288 107 18 65 17 232 0 315 -55 258 -216 420 -336 338z"/>
<path d="M3172 11070 c-46 -45 -65 -120 -64 -249 1 -166 49 -316 122 -390 40
-40 73 -48 105 -27 61 40 90 144 82 291 -12 212 -90 382 -183 401 -25 5 -36 0
-62 -26z"/>
<path d="M3626 10810 c-94 -112 -61 -480 54 -601 63 -66 118 -48 156 51 25 65
25 261 0 355 -51 191 -142 276 -210 195z"/>
<path d="M1526 10809 c-54 -42 -96 -168 -96 -289 0 -178 77 -387 172 -463 53
-42 115 -43 157 -3 72 69 105 236 78 397 -29 172 -93 300 -176 356 -43 29 -99
30 -135 2z"/>
<path d="M4057 10584 c-44 -43 -60 -121 -54 -259 7 -177 57 -314 130 -355 41
-23 76 1 104 70 18 45 22 75 23 167 0 172 -44 321 -113 379 -37 31 -58 30 -90
-2z"/>
<path d="M2117 10511 c-50 -55 -69 -130 -69 -266 1 -172 46 -314 128 -405 122
-135 244 -10 244 250 0 142 -45 297 -111 384 -42 54 -76 76 -122 76 -28 0 -42
-8 -70 -39z"/>
<path d="M4442 10363 c-36 -52 -47 -103 -46 -223 2 -325 168 -506 229 -249 19
81 19 152 0 257 -33 188 -126 296 -183 215z"/>
<path d="M2681 10275 c-16 -14 -40 -51 -52 -83 -20 -49 -23 -76 -23 -187 -1
-109 3 -142 23 -205 46 -150 109 -230 180 -230 45 0 70 23 103 95 21 45 23 65
23 195 0 122 -4 156 -22 215 -41 130 -117 225 -179 225 -12 0 -36 -11 -53 -25z"/>
<path d="M4822 10183 c-7 -3 -22 -24 -34 -46 -30 -57 -37 -249 -14 -350 29
-125 87 -208 135 -192 47 15 72 98 72 239 0 217 -76 383 -159 349z"/>
<path d="M143 10149 c-50 -25 -96 -89 -121 -169 -23 -76 -23 -280 2 -370 42
-156 144 -300 233 -329 143 -47 253 106 253 355 0 119 -23 223 -75 332 -42 89
-121 172 -181 190 -55 16 -62 15 -111 -9z"/>
<path d="M3188 10047 c-49 -39 -71 -109 -76 -232 -5 -130 13 -226 58 -322 37
-80 80 -123 124 -123 79 1 126 105 126 280 -1 185 -59 349 -142 400 -42 25
-57 25 -90 -3z"/>
<path d="M5142 9980 c-63 -68 -59 -350 8 -479 44 -87 92 -93 129 -16 22 45 25
63 25 170 -1 158 -30 271 -85 326 -25 25 -53 24 -77 -1z"/>
<path d="M869 9867 c-50 -34 -94 -128 -107 -232 -30 -228 66 -501 200 -571 40
-21 105 -18 139 7 127 90 150 428 44 641 -79 157 -185 216 -276 155z"/>
<path d="M3635 9824 c-41 -45 -59 -117 -59 -239 0 -130 20 -224 68 -311 41
-74 83 -102 122 -82 63 30 94 120 94 268 0 260 -129 468 -225 364z"/>
<path d="M5458 9813 c-60 -73 -63 -307 -5 -451 42 -105 99 -116 134 -25 27 72
24 263 -5 360 -35 111 -86 160 -124 116z"/>
<path d="M5751 9651 c-65 -65 -62 -322 4 -457 29 -59 56 -75 85 -49 34 30 45
84 45 210 -1 136 -26 241 -69 288 -30 32 -40 33 -65 8z"/>
<path d="M4074 9646 c-88 -63 -98 -349 -18 -527 29 -64 45 -82 88 -98 26 -10
31 -8 61 23 44 47 60 115 59 246 -2 114 -20 204 -59 279 -38 77 -89 106 -131
77z"/>
<path d="M1555 9631 c-65 -40 -97 -104 -116 -229 -22 -142 18 -338 92 -453 59
-92 147 -128 211 -85 34 22 84 123 98 195 39 211 -48 496 -175 568 -49 28 -71
28 -110 4z"/>
<path d="M6020 9495 c-38 -46 -52 -221 -26 -340 33 -150 83 -195 130 -115 19
31 21 52 21 175 0 109 -4 151 -18 192 -31 90 -75 126 -107 88z"/>
<path d="M4463 9465 c-107 -75 -75 -514 42 -591 158 -104 186 461 29 585 -32
25 -43 26 -71 6z"/>
<path d="M2137 9396 c-57 -53 -87 -150 -87 -288 0 -179 49 -328 135 -407 57
-52 98 -55 149 -10 53 46 78 122 84 256 6 158 -21 277 -90 385 -54 85 -138
113 -191 64z"/>
<path d="M6263 9333 c-35 -77 -27 -301 13 -398 18 -45 51 -72 72 -59 35 22 53
101 48 219 -5 128 -19 191 -50 237 -32 48 -62 49 -83 1z"/>
<path d="M4817 9292 c-52 -57 -72 -233 -43 -372 21 -99 63 -182 99 -194 38
-14 57 -1 87 60 22 44 25 62 25 169 0 125 -13 200 -47 270 -40 81 -86 106
-121 67z"/>
<path d="M6518 9223 c-68 -77 -37 -438 40 -468 8 -3 23 2 32 10 58 52 51 342
-10 443 -22 36 -40 40 -62 15z"/>
<path d="M2680 9183 c-130 -130 -85 -567 69 -670 47 -32 77 -29 115 10 56 55
78 133 78 272 0 198 -62 363 -152 410 -45 23 -69 18 -110 -22z"/>
<path d="M5144 9125 c-48 -73 -59 -244 -24 -380 23 -92 46 -134 82 -155 24
-13 29 -13 48 5 44 40 54 81 55 225 0 116 -3 145 -24 207 -13 40 -34 84 -47
98 -30 32 -69 33 -90 0z"/>
<path d="M6735 9087 c-49 -76 -25 -378 35 -432 19 -17 21 -17 39 -1 76 68 38
456 -44 456 -8 0 -21 -11 -30 -23z"/>
<path d="M3181 9001 c-47 -50 -66 -129 -66 -266 1 -131 23 -229 71 -312 73
-126 176 -104 218 47 22 77 23 240 2 329 -19 82 -69 184 -103 211 -39 30 -89
26 -122 -9z"/>
<path d="M5461 8989 c-30 -32 -46 -106 -45 -214 1 -216 81 -372 150 -292 33
39 47 125 41 252 -9 198 -81 324 -146 254z"/>
<path d="M6952 8977 c-62 -75 -22 -437 48 -437 26 0 37 24 52 108 22 128 -22
342 -70 342 -11 0 -24 -6 -30 -13z"/>
<path d="M7151 8862 c-6 -11 -16 -52 -22 -91 -21 -127 21 -331 69 -331 35 0
47 52 47 200 -1 123 -3 139 -25 185 -27 54 -53 68 -69 37z"/>
<path d="M3674 8860 c-59 -23 -94 -129 -94 -279 0 -244 99 -425 201 -371 49
27 81 137 80 279 -1 169 -52 317 -124 362 -36 21 -34 21 -63 9z"/>
<path d="M5746 8847 c-27 -40 -39 -126 -33 -242 5 -123 30 -205 73 -246 30
-28 48 -21 79 32 18 30 20 52 20 179 0 154 -13 220 -56 274 -26 32 -63 34 -83
3z"/>
<path d="M149 8827 c-51 -27 -99 -99 -127 -187 -27 -87 -23 -283 7 -380 33
-108 77 -184 138 -240 170 -155 343 9 343 326 0 220 -95 426 -224 485 -54 25
-84 24 -137 -4z"/>
<path d="M7343 8753 c-26 -40 -31 -240 -8 -320 38 -133 84 -114 101 42 11 107
-26 285 -62 299 -8 3 -21 -6 -31 -21z"/>
<path d="M6025 8730 c-22 -24 -44 -124 -45 -196 0 -108 36 -248 75 -284 45
-42 77 0 97 125 19 122 -13 298 -64 352 -26 28 -40 29 -63 3z"/>
<path d="M4082 8694 c-60 -42 -93 -197 -74 -345 42 -308 206 -382 253 -113 30
170 -24 405 -106 458 -30 20 -45 20 -73 0z"/>
<path d="M7524 8654 c-15 -21 -20 -52 -22 -134 -5 -124 10 -210 42 -247 l23
-27 19 29 c43 66 25 338 -25 389 -19 18 -19 18 -37 -10z"/>
<path d="M884 8621 c-35 -21 -83 -95 -102 -156 -31 -95 -31 -270 -1 -385 44
-170 159 -292 258 -275 83 14 154 129 171 276 26 227 -62 477 -192 545 -38 20
-97 17 -134 -5z"/>
<path d="M6276 8608 c-54 -84 -44 -349 18 -440 28 -43 55 -42 80 2 26 44 35
212 16 312 -23 121 -78 182 -114 126z"/>
<path d="M7688 8558 c-18 -32 -17 -258 1 -320 44 -154 108 -12 84 186 -17 134
-53 190 -85 134z"/>
<path d="M4452 8532 c-40 -55 -55 -136 -49 -261 6 -141 32 -233 81 -286 40
-42 68 -44 102 -8 77 83 74 391 -7 527 -37 63 -94 76 -127 28z"/>
<path d="M6515 8497 c-8 -13 -20 -58 -27 -100 -26 -167 39 -405 98 -357 25 22
34 46 44 127 25 197 -54 423 -115 330z"/>
<path d="M7849 8458 c-22 -51 -17 -249 7 -313 40 -103 77 -45 76 119 0 173
-47 280 -83 194z"/>
<path d="M1563 8444 c-138 -68 -171 -417 -60 -639 50 -100 118 -152 185 -141
124 20 195 259 146 493 -29 141 -99 259 -171 289 -41 18 -60 17 -100 -2z"/>
<path d="M4817 8400 c-28 -33 -57 -142 -57 -215 0 -127 40 -273 89 -319 84
-80 149 46 138 269 -6 126 -33 217 -77 265 -35 38 -61 38 -93 0z"/>
<path d="M6732 8373 c-27 -61 -23 -278 7 -356 26 -67 50 -85 75 -58 27 29 37
79 37 181 0 157 -30 261 -79 268 -18 3 -26 -5 -40 -35z"/>
<path d="M8005 8383 c-13 -33 -17 -207 -6 -267 6 -33 18 -70 27 -84 14 -21 18
-22 30 -10 27 27 39 131 27 228 -7 49 -18 102 -25 117 -16 33 -43 41 -53 16z"/>
<path d="M8150 8285 c-18 -55 -14 -222 7 -286 38 -114 78 -39 70 131 -5 111
-24 183 -50 188 -10 2 -19 -9 -27 -33z"/>
<path d="M5172 8303 c-19 -7 -48 -70 -61 -131 -29 -139 8 -350 74 -416 9 -9
27 -16 40 -16 37 0 65 49 81 143 36 201 -45 456 -134 420z"/>
<path d="M6949 8283 c-51 -130 -11 -423 57 -423 63 0 73 321 14 418 -25 40
-56 42 -71 5z"/>
<path d="M2159 8273 c-135 -83 -146 -473 -20 -657 58 -84 117 -105 177 -64
160 110 136 586 -36 713 -39 29 -83 32 -121 8z"/>
<path d="M8291 8209 c-30 -86 -1 -334 39 -334 39 0 50 205 18 315 -17 55 -41
64 -57 19z"/>
<path d="M7153 8193 c-15 -23 -18 -50 -18 -163 0 -137 11 -196 43 -232 36 -42
57 -14 72 96 18 129 -21 326 -64 326 -9 0 -24 -12 -33 -27z"/>
<path d="M5460 8158 c-32 -52 -43 -125 -38 -244 6 -122 26 -198 65 -244 51
-61 95 -21 120 109 14 71 15 98 5 175 -14 109 -35 176 -67 210 -33 35 -61 33
-85 -6z"/>
<path d="M8428 8148 c-20 -35 -17 -252 4 -300 37 -83 63 -30 62 122 -2 156
-32 237 -66 178z"/>
<path d="M2708 8123 c-35 -22 -73 -93 -88 -164 -18 -82 -8 -277 19 -360 36
-113 114 -196 171 -184 41 9 94 76 116 147 25 84 25 264 0 358 -45 167 -139
254 -218 203z"/>
<path d="M7340 8103 c-7 -15 -15 -71 -18 -124 -8 -160 37 -307 82 -270 41 34
47 268 9 366 -23 60 -52 72 -73 28z"/>
<path d="M8558 8078 c-20 -36 -17 -252 4 -300 9 -21 21 -38 27 -38 17 0 31 71
31 157 0 143 -31 235 -62 181z"/>
<path d="M5750 8048 c-29 -47 -35 -89 -34 -213 1 -127 22 -211 63 -257 51 -57
90 -15 113 121 9 55 9 92 0 165 -23 181 -90 268 -142 184z"/>
<path d="M7532 8038 c-38 -46 -41 -246 -6 -348 33 -96 69 -74 85 51 19 153
-33 351 -79 297z"/>
<path d="M8678 8008 c-19 -35 -16 -243 5 -290 9 -21 21 -38 26 -38 32 0 40
239 11 318 -14 38 -25 40 -42 10z"/>
<path d="M3208 7985 c-61 -33 -105 -194 -93 -338 25 -296 189 -446 273 -250
76 178 38 474 -74 573 -38 33 -65 37 -106 15z"/>
<path d="M6026 7958 c-55 -87 -48 -349 13 -453 11 -20 26 -31 44 -33 24 -3 30
2 49 44 39 90 34 312 -9 399 -34 67 -71 84 -97 43z"/>
<path d="M7701 7956 c-23 -27 -34 -150 -23 -241 12 -87 34 -155 51 -155 6 0
19 12 28 27 27 42 25 281 -2 337 -23 45 -37 53 -54 32z"/>
<path d="M8795 7943 c-25 -63 -12 -280 19 -311 12 -12 16 -11 27 9 17 32 17
211 0 272 -14 48 -33 61 -46 30z"/>
<path d="M8908 7878 c-8 -15 -13 -58 -12 -123 0 -163 39 -246 63 -135 14 64
14 117 0 196 -13 75 -31 97 -51 62z"/>
<path d="M6281 7859 c-33 -54 -46 -160 -32 -268 17 -137 59 -219 99 -195 40
24 56 84 56 199 0 126 -15 209 -47 257 -31 45 -52 47 -76 7z"/>
<path d="M7851 7853 c-17 -61 -13 -240 7 -298 19 -56 44 -69 64 -33 21 38 17
261 -5 321 -24 60 -51 64 -66 10z"/>
<path d="M3653 7848 c-97 -106 -97 -432 0 -575 23 -34 65 -63 92 -63 31 0 82
63 101 126 25 81 25 266 0 349 -24 79 -61 150 -88 169 -33 23 -81 20 -105 -6z"/>
<path d="M9015 7823 c-13 -34 -17 -168 -6 -227 25 -132 60 -94 60 64 -1 97
-15 170 -35 177 -7 2 -15 -4 -19 -14z"/>
<path d="M8008 7793 c-17 -39 -16 -237 1 -295 19 -65 35 -77 58 -42 15 24 18
48 17 154 0 87 -5 137 -16 165 -19 49 -44 57 -60 18z"/>
<path d="M6525 7776 c-49 -74 -49 -295 -1 -411 48 -114 117 -14 116 168 -1
128 -41 257 -82 265 -9 2 -24 -8 -33 -22z"/>
<path d="M9115 7753 c-12 -51 -6 -221 10 -259 12 -30 18 -35 28 -25 17 17 22
193 7 258 -12 58 -34 70 -45 26z"/>
<path d="M4081 7734 c-22 -18 -37 -45 -52 -96 -19 -61 -21 -87 -17 -197 4 -96
11 -139 27 -183 61 -159 138 -182 198 -59 26 53 28 64 28 201 0 160 -13 222
-61 297 -24 37 -59 63 -84 63 -5 0 -22 -12 -39 -26z"/>
<path d="M8155 7733 c-4 -10 -10 -61 -12 -113 -6 -107 8 -197 37 -232 l19 -23
15 37 c37 86 11 348 -33 348 -11 0 -22 -8 -26 -17z"/>
<path d="M9220 7710 c-18 -33 -14 -222 6 -267 l16 -38 14 30 c24 54 12 273
-16 290 -5 3 -14 -4 -20 -15z"/>
<path d="M6744 7685 c-34 -52 -36 -259 -4 -365 24 -79 62 -91 93 -28 53 109
14 418 -53 418 -11 0 -27 -11 -36 -25z"/>
<path d="M8298 7668 c-20 -36 -17 -262 5 -311 37 -84 71 -4 64 153 -4 103 -24
180 -46 180 -6 0 -16 -10 -23 -22z"/>
<path d="M9312 7653 c-12 -31 -7 -236 6 -260 28 -51 44 -8 44 118 -1 118 -28
195 -50 142z"/>
<path d="M4464 7623 c-40 -44 -59 -123 -59 -253 0 -137 26 -238 76 -295 53
-60 103 -41 140 53 19 48 23 77 23 182 0 149 -26 249 -79 306 -39 41 -68 43
-101 7z"/>
<path d="M6967 7622 c-67 -74 -36 -437 38 -437 79 0 74 402 -5 445 -13 7 -22
5 -33 -8z"/>
<path d="M8429 7593 c-16 -49 -14 -215 3 -273 17 -54 43 -65 55 -23 15 53 9
255 -9 296 -10 20 -21 37 -27 37 -5 0 -15 -17 -22 -37z"/>
<path d="M9405 7603 c-23 -61 -8 -271 21 -280 17 -6 24 32 24 138 0 122 -23
196 -45 142z"/>
<path d="M8558 7543 c-28 -66 -6 -319 29 -330 31 -11 51 139 33 248 -18 110
-39 137 -62 82z"/>
<path d="M9492 7553 c-4 -10 -7 -65 -6 -123 0 -99 12 -150 34 -150 21 0 25
219 4 274 -8 21 -23 21 -32 -1z"/>
<path d="M7154 7525 c-47 -114 -14 -391 49 -403 63 -12 76 308 16 407 -25 41
-47 39 -65 -4z"/>
<path d="M4830 7530 c-46 -46 -54 -86 -54 -250 0 -136 3 -162 22 -211 12 -30
36 -68 52 -84 26 -25 34 -27 58 -19 63 21 104 189 83 341 -26 187 -98 286
-161 223z"/>
<path d="M169 7510 c-112 -59 -176 -224 -166 -426 9 -164 63 -301 152 -383
139 -128 294 -33 347 212 6 28 8 103 6 171 -4 104 -9 133 -37 206 -39 106
-101 188 -165 218 -56 27 -90 27 -137 2z"/>
<path d="M9581 7512 c-25 -46 -8 -272 20 -272 29 0 29 225 0 277 -8 14 -10 14
-20 -5z"/>
<path d="M8682 7485 c-16 -34 -15 -229 1 -274 7 -19 17 -36 24 -38 25 -8 37
41 36 147 -1 145 -32 229 -61 165z"/>
<path d="M7352 7473 c-16 -30 -32 -121 -32 -176 1 -107 39 -237 70 -237 55 0
72 283 22 388 -19 41 -46 52 -60 25z"/>
<path d="M9660 7456 c-20 -54 -8 -232 18 -258 20 -20 35 97 23 185 -13 92 -25
114 -41 73z"/>
<path d="M5173 7445 c-50 -35 -80 -187 -63 -322 32 -253 147 -314 196 -104 18
74 17 173 -1 262 -19 87 -39 133 -73 159 -30 24 -32 24 -59 5z"/>
<path d="M8799 7434 c-18 -44 -15 -231 4 -276 29 -69 46 -45 54 77 6 89 -9
192 -32 214 -12 13 -16 11 -26 -15z"/>
<path d="M7536 7408 c-27 -41 -39 -160 -26 -252 15 -101 33 -146 58 -146 33 0
47 53 47 180 0 123 -15 198 -45 225 -17 16 -19 15 -34 -7z"/>
<path d="M9736 7408 c-14 -55 -2 -226 19 -246 15 -16 25 30 24 118 -1 101 -8
141 -26 147 -6 2 -13 -6 -17 -19z"/>
<path d="M8910 7375 c-22 -58 -6 -284 21 -301 19 -12 39 66 38 148 -1 135 -34
219 -59 153z"/>
<path d="M893 7369 c-42 -26 -88 -97 -110 -168 -13 -42 -18 -91 -18 -196 0
-120 3 -150 23 -210 57 -171 157 -265 251 -236 69 20 122 89 157 206 25 80 24
264 0 354 -57 211 -191 322 -303 250z"/>
<path d="M9814 7366 c-10 -42 0 -224 13 -237 7 -7 16 -9 20 -5 10 10 10 203 0
239 -9 34 -25 35 -33 3z"/>
<path d="M5471 7344 c-85 -108 -56 -460 43 -514 26 -14 28 -14 51 13 80 91 69
413 -17 504 -28 30 -52 29 -77 -3z"/>
<path d="M7698 7338 c-9 -16 -13 -66 -13 -163 0 -120 3 -146 20 -180 43 -86
78 -22 78 145 -1 161 -46 267 -85 198z"/>
<path d="M9015 7323 c-13 -54 -7 -219 10 -260 16 -36 17 -37 31 -19 21 29 23
209 3 274 -13 39 -34 42 -44 5z"/>
<path d="M9884 7294 c-10 -83 6 -214 26 -214 21 0 28 183 9 239 -16 46 -27 38
-35 -25z"/>
<path d="M9121 7279 c-13 -38 -14 -178 -2 -233 11 -47 28 -67 40 -47 27 43 18
269 -12 298 -13 13 -16 11 -26 -18z"/>
<path d="M9966 7301 c-24 -38 -11 -251 14 -251 15 0 23 69 17 157 -5 81 -17
118 -31 94z"/>
<path d="M7859 7268 c-9 -22 -14 -74 -14 -158 0 -105 3 -131 20 -164 37 -74
61 -52 73 66 13 130 -15 288 -51 288 -8 0 -21 -15 -28 -32z"/>
<path d="M5766 7271 c-50 -55 -65 -278 -27 -401 56 -182 149 -126 159 95 9
209 -65 381 -132 306z"/>
<path d="M1558 7245 c-110 -74 -154 -345 -91 -550 49 -156 141 -244 228 -215
151 50 207 408 99 640 -41 90 -110 150 -171 150 -16 0 -45 -11 -65 -25z"/>
<path d="M10025 7215 c-11 -92 9 -224 31 -202 24 24 10 257 -15 257 -5 0 -12
-25 -16 -55z"/>
<path d="M9220 7234 c-6 -14 -10 -67 -9 -117 0 -92 14 -157 35 -164 17 -6 24
32 24 137 0 139 -25 211 -50 144z"/>
<path d="M8010 7204 c-19 -57 -15 -229 7 -294 22 -66 42 -71 61 -15 18 54 12
268 -8 310 -22 44 -46 44 -60 -1z"/>
<path d="M10094 7205 c-8 -33 -1 -196 10 -213 17 -28 26 5 26 103 0 57 -3 110
-6 119 -9 24 -23 19 -30 -9z"/>
<path d="M9319 7199 c-25 -47 -8 -289 21 -289 25 0 37 143 20 234 -14 74 -23
87 -41 55z"/>
<path d="M6018 7163 c-21 -43 -23 -61 -22 -183 0 -114 4 -144 22 -191 40 -102
77 -113 117 -33 28 55 34 252 10 341 -33 122 -86 149 -127 66z"/>
<path d="M10164 7185 c-18 -46 -5 -235 16 -235 23 0 24 197 0 239 -8 14 -10
13 -16 -4z"/>
<path d="M8172 7177 c-29 -35 -40 -162 -22 -258 20 -110 46 -137 71 -76 18 40
17 237 0 289 -15 46 -34 63 -49 45z"/>
<path d="M9406 7148 c-3 -13 -6 -63 -6 -113 0 -131 27 -210 47 -137 11 39 7
212 -6 245 -13 33 -27 35 -35 5z"/>
<path d="M2185 7151 c-168 -74 -181 -542 -19 -704 95 -95 193 -35 245 148 20
71 17 253 -5 334 -44 164 -139 258 -221 222z"/>
<path d="M10224 7136 c-8 -32 -1 -203 9 -212 16 -16 22 14 22 111 0 67 -4 108
-12 116 -9 9 -13 6 -19 -15z"/>
<path d="M6286 7118 c-54 -82 -45 -358 13 -438 53 -73 100 -5 109 155 8 163
-33 305 -88 305 -11 0 -26 -10 -34 -22z"/>
<path d="M8311 7126 c-46 -56 -27 -356 23 -356 23 0 36 57 36 162 0 144 -27
233 -59 194z"/>
<path d="M9496 7115 c-10 -26 -7 -221 4 -249 12 -34 26 -33 35 2 9 37 7 190
-3 226 -9 34 -27 44 -36 21z"/>
<path d="M10284 7095 c-7 -40 0 -193 10 -202 15 -15 21 17 21 112 0 67 -4 108
-12 116 -9 9 -13 3 -19 -26z"/>
<path d="M10345 7067 c-8 -43 -2 -193 8 -204 16 -15 22 15 21 106 -1 109 -17
163 -29 98z"/>
<path d="M8439 7069 c-10 -17 -14 -60 -14 -144 0 -131 15 -198 43 -193 46 9
48 284 3 340 l-18 22 -14 -25z"/>
<path d="M9583 7075 c-14 -33 -9 -227 6 -254 12 -21 15 -22 23 -8 25 46 20
226 -7 264 -13 17 -14 17 -22 -2z"/>
<path d="M6537 7066 c-30 -31 -42 -89 -42 -206 0 -131 16 -208 50 -244 51 -55
87 10 93 168 5 122 -10 211 -42 259 -26 37 -39 43 -59 23z"/>
<path d="M2695 7017 c-62 -66 -80 -131 -80 -297 0 -153 13 -210 67 -299 21
-35 46 -61 70 -73 33 -17 39 -18 71 -4 39 16 76 65 104 136 13 35 17 77 17
190 0 125 -3 154 -22 208 -30 83 -65 138 -105 162 -49 30 -75 26 -122 -23z"/>
<path d="M10405 7051 c-8 -15 -9 -174 0 -201 15 -47 25 -13 25 83 0 99 -9 142
-25 118z"/>
<path d="M9663 7023 c-5 -16 -7 -66 -7 -113 2 -152 43 -190 52 -48 4 76 -12
188 -29 188 -5 0 -12 -12 -16 -27z"/>
<path d="M8561 7009 c-14 -42 -13 -223 3 -274 17 -57 41 -57 55 -1 27 108 2
306 -39 306 -5 0 -13 -14 -19 -31z"/>
<path d="M9746 7003 c-21 -53 -14 -239 10 -262 23 -23 40 109 26 197 -12 71
-25 94 -36 65z"/>
<path d="M6743 6973 c-22 -50 -29 -226 -13 -303 15 -71 43 -120 69 -120 69 0
84 324 20 429 -26 43 -56 41 -76 -6z"/>
<path d="M8683 6963 c-5 -16 -8 -75 -8 -133 0 -162 39 -239 65 -129 14 59 8
206 -10 257 -15 39 -37 42 -47 5z"/>
<path d="M9816 6949 c-21 -107 13 -307 38 -216 7 28 6 172 -3 211 -8 41 -27
43 -35 5z"/>
<path d="M3210 6944 c-60 -51 -90 -150 -91 -295 0 -170 52 -318 129 -362 28
-17 37 -17 63 -7 68 28 108 126 116 280 8 175 -40 336 -116 387 -44 30 -62 29
-101 -3z"/>
<path d="M6982 6951 c-31 -19 -45 -86 -45 -206 0 -129 21 -218 55 -239 74 -45
105 264 42 406 -17 39 -33 51 -52 39z"/>
<path d="M8801 6919 c-14 -42 -13 -213 3 -264 6 -22 18 -40 26 -40 20 0 30 48
31 141 1 156 -32 244 -60 163z"/>
<path d="M9896 6929 c-12 -60 -14 -100 -6 -168 8 -78 15 -94 31 -71 14 21 7
236 -8 251 -9 9 -13 6 -17 -12z"/>
<path d="M8913 6883 c-12 -41 -8 -244 5 -275 14 -35 30 -36 42 -2 14 35 11
222 -3 263 -15 44 -34 50 -44 14z"/>
<path d="M9966 6894 c-10 -26 -7 -191 5 -221 9 -25 11 -26 20 -10 20 35 10
247 -11 247 -4 0 -11 -7 -14 -16z"/>
<path d="M7164 6875 c-35 -54 -33 -299 2 -372 24 -47 52 -50 74 -8 11 23 15
65 15 170 0 123 -3 146 -22 188 -25 53 -45 59 -69 22z"/>
<path d="M3668 6860 c-138 -108 -97 -602 53 -635 92 -21 156 131 146 345 -11
221 -108 362 -199 290z"/>
<path d="M10037 6873 c-4 -3 -7 -54 -7 -113 0 -76 4 -112 14 -126 14 -18 15
-18 21 8 10 40 2 215 -11 228 -6 6 -13 7 -17 3z"/>
<path d="M9020 6834 c-15 -44 -8 -226 9 -269 12 -28 13 -29 26 -11 20 26 29
115 20 198 -11 118 -33 150 -55 82z"/>
<path d="M7362 6837 c-46 -55 -43 -323 4 -394 57 -88 107 123 70 296 -19 92
-48 130 -74 98z"/>
<path d="M10105 6840 c-26 -42 -9 -268 18 -241 15 15 15 209 1 235 -8 14 -13
15 -19 6z"/>
<path d="M9120 6779 c-26 -108 13 -328 45 -251 14 34 16 196 3 246 -18 67 -33
68 -48 5z"/>
<path d="M10164 6796 c-8 -34 -1 -213 9 -223 19 -18 28 29 25 124 -4 105 -20
154 -34 99z"/>
<path d="M4091 6785 c-16 -14 -40 -51 -52 -83 -19 -48 -23 -77 -23 -187 -1
-108 3 -142 22 -202 25 -82 74 -143 114 -143 83 0 144 195 119 381 -13 105
-54 204 -96 237 -35 28 -47 28 -84 -3z"/>
<path d="M7542 6787 c-38 -45 -42 -291 -6 -363 24 -48 38 -52 61 -18 15 24 18
50 18 169 0 120 -3 146 -20 179 -22 44 -37 53 -53 33z"/>
<path d="M9223 6763 c-12 -41 -8 -224 5 -255 27 -67 48 -4 45 137 -1 90 -14
145 -33 145 -5 0 -13 -12 -17 -27z"/>
<path d="M10224 6744 c-7 -47 1 -178 12 -196 14 -22 24 21 24 98 0 135 -21
193 -36 98z"/>
<path d="M9320 6736 c-16 -44 -13 -211 6 -254 l16 -37 14 30 c7 17 13 65 13
110 1 127 -26 210 -49 151z"/>
<path d="M10285 6714 c-6 -43 2 -170 12 -188 19 -31 33 151 17 212 -10 35 -21
26 -29 -24z"/>
<path d="M7712 6737 c-47 -56 -37 -335 13 -386 52 -52 87 171 50 314 -21 80
-39 101 -63 72z"/>
<path d="M4472 6707 c-92 -98 -90 -416 5 -544 47 -65 97 -49 141 45 25 54 27
65 26 202 0 126 -3 153 -23 203 -43 110 -100 146 -149 94z"/>
<path d="M10345 6689 c-8 -47 3 -186 15 -194 12 -7 20 33 20 106 0 118 -21
171 -35 88z"/>
<path d="M9412 6703 c-12 -31 -7 -236 7 -262 10 -17 16 -20 24 -12 14 14 17
219 4 264 -8 31 -24 35 -35 10z"/>
<path d="M7878 6697 c-9 -9 -21 -46 -28 -82 -21 -112 10 -310 48 -303 33 6 47
57 47 173 -1 109 -12 174 -38 209 -12 16 -15 17 -29 3z"/>
<path d="M10404 6676 c-7 -42 -1 -193 9 -203 16 -15 21 14 21 113 -1 111 -17
159 -30 90z"/>
<path d="M9500 6665 c-22 -57 -6 -265 20 -265 27 0 38 140 19 229 -13 60 -25
72 -39 36z"/>
<path d="M4843 6655 c-12 -8 -32 -41 -44 -73 -19 -48 -23 -77 -23 -182 -1
-159 22 -249 76 -300 55 -51 107 -3 134 125 35 159 -5 378 -78 429 -28 20 -38
20 -65 1z"/>
<path d="M8018 6638 c-21 -37 -18 -284 5 -325 24 -46 34 -48 54 -11 23 43 23
252 1 313 -17 47 -41 56 -60 23z"/>
<path d="M9580 6603 c-9 -41 -9 -78 -2 -136 12 -90 26 -115 42 -73 22 58 6
266 -20 266 -5 0 -14 -26 -20 -57z"/>
<path d="M9664 6595 c-9 -51 0 -216 13 -240 11 -19 12 -19 22 8 6 16 11 68 11
116 0 125 -30 200 -46 116z"/>
<path d="M8168 6598 c-19 -34 -18 -284 2 -322 39 -77 65 -16 65 154 -1 99 -4
132 -18 158 -21 38 -32 40 -49 10z"/>
<path d="M5173 6588 c-46 -49 -58 -103 -57 -253 0 -119 4 -148 22 -196 46
-118 104 -130 150 -31 25 53 27 67 27 192 0 153 -18 230 -66 281 -33 35 -49
36 -76 7z"/>
<path d="M9744 6565 c-10 -53 0 -223 14 -237 21 -21 34 40 29 142 -5 96 -12
130 -28 130 -4 0 -11 -16 -15 -35z"/>
<path d="M8308 6558 c-19 -34 -18 -274 2 -312 39 -76 65 -16 64 144 -1 154
-31 229 -66 168z"/>
<path d="M9821 6534 c-19 -69 -5 -234 20 -234 29 0 30 233 1 262 -7 7 -14 -2
-21 -28z"/>
<path d="M5485 6533 c-28 -27 -43 -72 -56 -166 -22 -146 20 -321 85 -357 26
-14 28 -14 51 13 43 48 58 124 52 261 -5 130 -14 174 -50 227 -26 39 -57 48
-82 22z"/>
<path d="M8443 6523 c-25 -38 -25 -249 -1 -305 10 -21 21 -38 26 -38 49 0 50
335 2 365 -5 3 -17 -7 -27 -22z"/>
<path d="M9894 6515 c-10 -41 0 -223 14 -237 18 -18 26 16 26 117 1 95 -8 145
-24 145 -5 0 -12 -11 -16 -25z"/>
<path d="M8568 6488 c-18 -31 -18 -240 0 -290 31 -87 62 -23 61 126 -1 147
-28 221 -61 164z"/>
<path d="M9964 6474 c-9 -49 1 -203 15 -217 17 -17 26 20 26 113 0 89 -9 140
-25 140 -5 0 -12 -16 -16 -36z"/>
<path d="M5783 6485 c-37 -26 -56 -92 -61 -210 -8 -207 57 -354 128 -290 51
47 69 282 30 407 -26 84 -61 118 -97 93z"/>
<path d="M10036 6468 c-10 -37 -7 -185 4 -214 19 -48 31 -12 31 87 1 96 -7
149 -21 149 -4 0 -10 -10 -14 -22z"/>
<path d="M8689 6448 c-20 -47 -17 -231 4 -280 20 -48 33 -48 48 1 23 77 0 311
-31 311 -4 0 -14 -15 -21 -32z"/>
<path d="M10105 6451 c-8 -28 -9 -172 0 -211 4 -17 11 -30 15 -30 15 0 23 69
17 157 -5 87 -19 124 -32 84z"/>
<path d="M6047 6432 c-35 -39 -50 -103 -50 -222 0 -130 20 -218 59 -257 29
-29 38 -29 63 3 33 42 45 101 45 224 0 123 -16 195 -55 244 -24 31 -40 33 -62
8z"/>
<path d="M8801 6396 c-24 -96 -5 -277 31 -284 24 -5 42 93 35 188 -11 134 -44
183 -66 96z"/>
<path d="M10164 6394 c-8 -53 2 -184 15 -197 14 -14 24 31 24 103 1 124 -25
186 -39 94z"/>
<path d="M10235 6409 c-11 -16 -10 -186 0 -218 5 -17 10 -20 18 -12 15 15 15
199 1 225 -9 14 -13 16 -19 5z"/>
<path d="M8918 6388 c-16 -30 -15 -221 1 -270 28 -83 55 -27 55 112 0 100 -15
180 -34 180 -5 0 -15 -10 -22 -22z"/>
<path d="M6290 6368 c-29 -47 -35 -89 -34 -218 2 -127 27 -220 65 -241 62 -32
109 127 89 300 -19 165 -73 236 -120 159z"/>
<path d="M10296 6392 c-11 -17 -8 -210 3 -230 9 -16 10 -15 18 3 19 48 0 260
-21 227z"/>
<path d="M9020 6328 c-22 -90 1 -276 32 -266 18 6 26 44 27 135 1 96 -15 183
-34 183 -7 0 -18 -22 -25 -52z"/>
<path d="M10348 6328 c-2 -60 2 -159 9 -182 17 -60 34 138 17 202 -10 36 -24
25 -26 -20z"/>
<path d="M6548 6349 c-48 -27 -69 -262 -34 -382 17 -59 48 -101 69 -94 45 15
76 177 58 306 -17 130 -52 193 -93 170z"/>
<path d="M9130 6330 c-13 -24 -16 -175 -6 -237 10 -59 31 -73 45 -32 14 40 14
202 0 252 -11 42 -23 47 -39 17z"/>
<path d="M10405 6301 c-7 -55 3 -181 15 -181 14 0 20 30 20 93 0 74 -10 137
-20 137 -5 0 -11 -22 -15 -49z"/>
<path d="M9235 6321 c-15 -25 -23 -143 -14 -212 15 -124 44 -127 56 -6 10 116
-17 258 -42 218z"/>
<path d="M6757 6288 c-36 -57 -47 -213 -23 -325 23 -109 68 -146 101 -83 39
75 37 308 -3 390 -21 43 -54 51 -75 18z"/>
<path d="M9319 6258 c-13 -50 -7 -198 10 -242 21 -53 36 -15 39 102 5 153 -23
234 -49 140z"/>
<path d="M6963 6238 c-26 -48 -26 -292 0 -360 27 -69 52 -74 85 -15 14 26 17
58 17 172 0 123 -3 146 -22 188 -27 58 -54 63 -80 15z"/>
<path d="M9417 6256 c-14 -35 -18 -136 -8 -200 12 -82 25 -102 41 -61 13 33
14 196 2 239 -9 33 -27 44 -35 22z"/>
<path d="M9503 6223 c-12 -44 -8 -215 7 -248 l12 -30 14 30 c25 56 11 275 -17
275 -5 0 -12 -12 -16 -27z"/>
<path d="M7178 6223 c-40 -45 -50 -271 -17 -367 32 -91 79 -64 100 56 21 124
-12 310 -57 325 -6 2 -18 -4 -26 -14z"/>
<path d="M9590 6205 c-16 -40 -10 -239 8 -257 10 -10 15 -10 22 2 15 23 11
220 -4 255 l-14 30 -12 -30z"/>
<path d="M205 6198 c-78 -28 -142 -108 -176 -220 -81 -273 28 -616 208 -653
107 -22 214 83 258 254 21 81 21 246 1 333 -46 200 -176 328 -291 286z"/>
<path d="M7353 6163 c-21 -47 -24 -255 -5 -320 14 -49 36 -75 57 -67 27 11 40
76 40 209 0 110 -3 136 -20 170 -27 54 -51 57 -72 8z"/>
<path d="M9675 6190 c-21 -34 -17 -225 5 -260 20 -30 30 13 30 126 0 77 -4
116 -13 129 -11 14 -16 15 -22 5z"/>
<path d="M9753 6164 c-12 -29 -9 -226 3 -248 11 -19 12 -18 24 3 16 30 10 235
-7 252 -10 10 -14 8 -20 -7z"/>
<path d="M7535 6137 c-33 -80 -27 -285 10 -358 19 -35 30 -36 51 -4 27 41 39
154 26 250 -18 134 -57 184 -87 112z"/>
<path d="M9824 6125 c-8 -43 -1 -221 9 -231 28 -29 47 114 27 209 -13 65 -26
73 -36 22z"/>
<path d="M924 6126 c-68 -30 -132 -138 -156 -266 -13 -69 -4 -260 15 -320 55
-172 150 -260 248 -231 118 36 197 222 186 436 -8 145 -45 250 -115 327 -58
64 -115 81 -178 54z"/>
<path d="M7710 6121 c-22 -42 -33 -170 -22 -252 11 -79 34 -139 52 -139 5 0
18 12 27 27 26 39 26 290 1 346 -19 41 -42 48 -58 18z"/>
<path d="M9900 6116 c-21 -56 -6 -246 20 -246 23 0 24 240 0 264 -6 6 -13 -1
-20 -18z"/>
<path d="M9973 6104 c-13 -30 -8 -223 5 -236 6 -6 15 -8 19 -4 13 13 9 234 -4
247 -10 10 -14 8 -20 -7z"/>
<path d="M7869 6078 c-21 -51 -19 -281 4 -331 19 -44 35 -44 57 -1 22 43 21
275 -2 327 -21 46 -41 47 -59 5z"/>
<path d="M10043 6085 c-4 -11 -8 -58 -8 -105 0 -139 27 -193 40 -80 7 64 -1
167 -15 190 -7 12 -10 11 -17 -5z"/>
<path d="M1600 6073 c-50 -19 -95 -77 -130 -168 -21 -53 -24 -77 -24 -205 -1
-160 10 -214 64 -307 69 -119 165 -140 244 -53 65 72 96 179 97 325 0 113 -13
186 -47 263 -51 115 -132 172 -204 145z"/>
<path d="M8031 6067 c-15 -19 -31 -108 -31 -176 0 -69 23 -168 43 -188 13 -14
17 -12 34 13 26 41 27 283 0 332 -19 35 -29 39 -46 19z"/>
<path d="M10106 6058 c-14 -52 -3 -228 14 -228 15 0 21 35 21 116 0 85 -8 134
-21 134 -4 0 -10 -10 -14 -22z"/>
<path d="M10167 6003 c-6 -54 -2 -116 9 -172 9 -45 27 -5 31 71 8 128 -28 218
-40 101z"/>
<path d="M8168 6023 c-17 -39 -17 -258 0 -305 19 -54 47 -52 63 5 16 56 14
220 -3 277 -17 54 -42 64 -60 23z"/>
<path d="M10235 6027 c-9 -33 -2 -213 8 -223 16 -17 22 13 22 116 0 71 -4 113
-12 121 -9 9 -13 6 -18 -14z"/>
<path d="M2194 6016 c-59 -26 -103 -103 -129 -227 -19 -91 -19 -171 1 -267 21
-100 55 -172 104 -216 132 -119 272 82 257 369 -13 232 -121 390 -233 341z"/>
<path d="M8309 5998 c-21 -49 -19 -252 3 -300 19 -44 32 -47 50 -15 19 33 18
273 -2 311 -21 41 -35 42 -51 4z"/>
<path d="M10295 6007 c-9 -33 -2 -203 8 -213 16 -16 22 13 22 111 0 67 -4 108
-12 116 -9 9 -13 6 -18 -14z"/>
<path d="M10357 6003 c-10 -9 -7 -194 3 -218 l8 -20 8 20 c12 27 9 204 -3 216
-5 5 -12 6 -16 2z"/>
<path d="M8440 5966 c-6 -19 -11 -79 -11 -133 0 -156 38 -241 68 -153 15 45
15 223 -1 275 -15 52 -40 57 -56 11z"/>
<path d="M10416 5992 c-9 -15 -10 -208 0 -223 14 -24 24 18 23 106 0 93 -9
139 -23 117z"/>
<path d="M2745 5970 c-156 -65 -182 -512 -38 -671 42 -47 81 -57 123 -32 61
36 104 130 118 261 22 191 -39 392 -131 435 -39 19 -43 19 -72 7z"/>
<path d="M8569 5943 c-28 -84 -8 -313 28 -313 24 0 36 52 36 165 0 109 -17
185 -42 185 -5 0 -15 -17 -22 -37z"/>
<path d="M8699 5943 c-33 -39 -18 -318 17 -330 37 -12 53 233 21 310 -18 42
-20 43 -38 20z"/>
<path d="M8809 5903 c-27 -79 -8 -303 25 -303 46 0 46 322 -1 337 -6 2 -17
-13 -24 -34z"/>
<path d="M3216 5909 c-107 -85 -130 -414 -39 -581 45 -82 105 -108 157 -67 58
46 96 167 97 309 1 151 -31 261 -94 328 -37 38 -81 43 -121 11z"/>
<path d="M8929 5904 c-30 -37 -21 -299 12 -320 29 -17 49 158 30 261 -13 69
-22 82 -42 59z"/>
<path d="M9030 5865 c-25 -74 -9 -295 21 -295 42 0 47 276 5 319 -12 11 -16 7
-26 -24z"/>
<path d="M3665 5857 c-89 -89 -107 -381 -33 -532 47 -94 100 -117 157 -70 113
96 110 488 -5 603 -42 42 -76 42 -119 -1z"/>
<path d="M9133 5853 c-13 -46 -9 -245 5 -270 20 -36 30 -28 43 35 18 89 -3
262 -32 262 -5 0 -12 -12 -16 -27z"/>
<path d="M9229 5818 c-12 -44 -8 -218 6 -250 10 -26 24 -22 36 9 23 60 6 283
-21 283 -5 0 -14 -19 -21 -42z"/>
<path d="M4092 5827 c-131 -139 -87 -607 58 -607 109 0 167 292 101 502 -36
114 -107 161 -159 105z"/>
<path d="M9323 5803 c-12 -58 -7 -204 9 -243 l15 -35 14 25 c18 32 18 234 0
268 -17 32 -29 27 -38 -15z"/>
<path d="M9420 5806 c-14 -39 -12 -224 4 -261 l13 -30 12 23 c18 34 25 149 12
217 -14 72 -26 88 -41 51z"/>
<path d="M4487 5800 c-60 -48 -95 -257 -68 -405 34 -185 130 -242 193 -115 88
179 28 540 -91 540 -5 0 -20 -9 -34 -20z"/>
<path d="M9514 5798 c-24 -38 -20 -256 5 -281 22 -22 33 37 30 154 -4 115 -16
158 -35 127z"/>
<path d="M4846 5767 c-13 -13 -33 -50 -46 -83 -19 -50 -23 -78 -23 -179 0
-186 43 -300 113 -300 28 0 39 6 57 34 38 56 48 108 48 246 0 148 -18 225 -66
276 -33 35 -52 37 -83 6z"/>
<path d="M9592 5773 c-13 -32 -8 -226 7 -252 13 -23 14 -23 24 -5 13 22 15
183 4 237 -8 40 -23 48 -35 20z"/>
<path d="M9673 5755 c-21 -79 2 -296 27 -255 26 42 22 230 -5 267 -12 17 -14
16 -22 -12z"/>
<path d="M5194 5747 c-52 -29 -79 -125 -78 -272 1 -125 20 -207 60 -254 73
-88 146 28 147 234 0 114 -15 192 -49 251 -25 45 -50 57 -80 41z"/>
<path d="M9752 5743 c-12 -31 -7 -216 7 -242 12 -22 14 -22 23 -7 11 19 13
188 3 234 -7 35 -22 41 -33 15z"/>
<path d="M9834 5735 c-13 -30 -11 -227 3 -250 11 -19 12 -19 22 8 26 68 1 303
-25 242z"/>
<path d="M5499 5720 c-9 -5 -27 -33 -40 -62 -22 -48 -24 -66 -23 -198 0 -155
13 -211 56 -257 27 -29 49 -29 75 0 67 73 80 326 23 455 -28 64 -56 82 -91 62z"/>
<path d="M9907 5723 c-11 -19 -18 -119 -12 -171 13 -115 38 -110 44 9 5 118
-11 198 -32 162z"/>
<path d="M9974 5696 c-8 -34 -1 -222 9 -232 17 -17 27 25 27 116 0 99 -6 140
-21 140 -5 0 -11 -11 -15 -24z"/>
<path d="M10043 5684 c-16 -62 -4 -234 17 -234 15 0 23 66 18 156 -5 91 -21
128 -35 78z"/>
<path d="M5772 5675 c-31 -39 -47 -120 -47 -235 1 -118 21 -202 59 -247 35
-40 67 -22 97 54 29 76 33 267 7 353 -29 94 -77 125 -116 75z"/>
<path d="M10113 5685 c-12 -30 -8 -224 5 -237 8 -8 13 -7 19 8 12 29 9 206 -4
229 l-12 20 -8 -20z"/>
<path d="M6050 5658 c-33 -36 -45 -95 -45 -228 0 -138 14 -205 51 -245 20 -22
27 -24 45 -15 11 7 31 33 42 58 19 40 22 66 22 177 0 143 -13 210 -51 250 -28
31 -38 31 -64 3z"/>
<path d="M10176 5664 c-11 -28 -6 -195 6 -217 11 -21 11 -21 19 -2 9 25 11
161 3 204 -7 34 -18 40 -28 15z"/>
<path d="M10234 5634 c-8 -42 -1 -191 10 -201 16 -16 26 26 26 107 0 89 -7
130 -21 130 -4 0 -11 -16 -15 -36z"/>
<path d="M10294 5624 c-8 -42 -1 -175 11 -193 15 -25 25 13 25 99 0 89 -7 130
-21 130 -4 0 -11 -16 -15 -36z"/>
<path d="M6298 5628 c-30 -47 -40 -114 -37 -240 4 -107 7 -130 29 -173 44 -87
88 -67 116 53 36 153 -6 382 -70 382 -14 0 -30 -10 -38 -22z"/>
<path d="M10356 5628 c-10 -38 -7 -165 5 -195 10 -26 12 -27 19 -8 10 24 12
150 4 194 -8 36 -19 40 -28 9z"/>
<path d="M10416 5625 c-9 -26 -7 -188 4 -205 17 -28 24 1 23 101 0 95 -12 142
-27 104z"/>
<path d="M6527 5583 c-26 -60 -36 -226 -17 -313 14 -66 43 -120 63 -120 61 0
99 222 63 372 -27 117 -72 142 -109 61z"/>
<path d="M6760 5578 c-46 -77 -43 -331 6 -405 16 -25 46 -30 62 -10 39 47 53
233 26 347 -23 101 -58 126 -94 68z"/>
<path d="M6980 5576 c-67 -81 -43 -436 30 -436 47 0 79 158 60 297 -17 128
-52 183 -90 139z"/>
<path d="M7186 5564 c-55 -55 -58 -317 -4 -404 23 -39 37 -35 63 16 28 55 29
275 2 346 -20 51 -39 65 -61 42z"/>
<path d="M7373 5548 c-44 -57 -48 -310 -7 -389 18 -36 43 -35 61 2 23 47 34
166 24 248 -11 86 -18 108 -39 134 -18 20 -26 21 -39 5z"/>
<path d="M7540 5513 c-19 -38 -26 -250 -10 -311 40 -160 108 -49 97 158 -6
115 -23 174 -53 178 -14 2 -25 -6 -34 -25z"/>
<path d="M7722 5517 c-52 -63 -34 -397 22 -397 23 0 35 31 47 117 20 154 -24
335 -69 280z"/>
<path d="M7881 5496 c-34 -40 -39 -264 -8 -338 20 -49 33 -53 54 -21 15 23 18
49 18 168 0 96 -4 150 -14 173 -14 34 -31 41 -50 18z"/>
<path d="M8029 5473 c-28 -74 -27 -269 3 -330 29 -60 52 -31 70 90 20 146 -37
334 -73 240z"/>
<path d="M8173 5453 c-12 -28 -16 -68 -16 -148 0 -118 16 -188 45 -193 28 -5
43 61 42 183 -1 163 -35 241 -71 158z"/>
<path d="M8309 5428 c-15 -55 -15 -211 0 -264 15 -54 36 -73 50 -45 32 58 32
273 1 331 -18 33 -38 23 -51 -22z"/>
<path d="M8448 5433 c-17 -39 -17 -248 0 -295 32 -89 64 -18 64 141 0 147 -33
226 -64 154z"/>
<path d="M8578 5428 c-9 -16 -13 -65 -13 -153 0 -126 10 -175 35 -175 25 0 35
49 35 165 0 154 -24 221 -57 163z"/>
<path d="M8699 5413 c-29 -75 -18 -285 16 -313 26 -22 39 34 39 165 0 116 -12
175 -34 175 -6 0 -15 -12 -21 -27z"/>
<path d="M8818 5408 c-18 -31 -18 -265 0 -295 7 -13 17 -23 21 -23 31 0 44
239 17 305 -18 41 -21 42 -38 13z"/>
<path d="M8930 5400 c-18 -34 -24 -176 -11 -242 21 -99 48 -90 60 21 9 84 -4
210 -23 230 -12 11 -16 10 -26 -9z"/>
<path d="M9035 5393 c-23 -58 -17 -263 9 -299 13 -17 14 -16 26 6 19 35 24
195 8 254 -14 53 -31 68 -43 39z"/>
<path d="M9139 5379 c-9 -16 -13 -61 -13 -134 1 -148 27 -211 52 -126 22 71
11 246 -16 273 -7 7 -15 2 -23 -13z"/>
<path d="M9230 5333 c-20 -94 -1 -253 30 -253 26 0 38 179 17 259 -17 64 -33
62 -47 -6z"/>
<path d="M9332 5363 c-13 -32 -8 -261 6 -275 9 -9 15 -9 25 0 14 15 17 218 4
265 -8 31 -24 35 -35 10z"/>
<path d="M9422 5353 c-13 -34 -8 -236 7 -263 l14 -25 13 30 c16 36 18 186 3
238 -11 40 -25 48 -37 20z"/>
<path d="M9515 5360 c-12 -19 -19 -150 -11 -212 13 -103 38 -102 50 2 12 108
-14 250 -39 210z"/>
<path d="M9594 5328 c-11 -51 -7 -213 6 -238 23 -43 35 -5 35 108 0 109 -8
162 -24 162 -5 0 -13 -15 -17 -32z"/>
<path d="M9675 5316 c-11 -55 -2 -223 12 -237 7 -7 16 -9 20 -5 11 11 16 186
6 230 -11 51 -30 57 -38 12z"/>
<path d="M9754 5316 c-8 -33 -1 -232 9 -242 16 -17 29 18 33 92 6 88 -5 165
-23 171 -7 3 -15 -7 -19 -21z"/>
<path d="M9833 5314 c-17 -66 -5 -254 17 -254 15 0 22 63 18 164 -3 101 -20
144 -35 90z"/>
<path d="M9906 5308 c-10 -38 -7 -195 5 -225 9 -25 12 -26 20 -11 17 30 22
141 10 201 -13 60 -25 72 -35 35z"/>
<path d="M9976 5298 c-10 -37 -7 -185 4 -214 19 -49 34 -12 34 88 0 96 -8 148
-23 148 -5 0 -11 -10 -15 -22z"/>
<path d="M10046 5289 c-14 -71 -4 -229 15 -229 14 0 22 42 22 120 0 119 -22
183 -37 109z"/>
<path d="M10117 5303 c-11 -10 -8 -216 3 -233 18 -28 25 3 25 110 0 101 -10
142 -28 123z"/>
<path d="M10174 5264 c-8 -43 -1 -185 10 -203 7 -11 10 -11 17 0 10 16 12 199
3 223 -10 26 -23 18 -30 -20z"/>
<path d="M10243 5285 c-10 -26 -10 -171 0 -209 15 -54 28 -12 28 92 0 106 -12
156 -28 117z"/>
<path d="M10295 5231 c-7 -63 0 -147 15 -171 16 -25 21 10 18 120 -3 120 -22
148 -33 51z"/>
<path d="M10364 5275 c-11 -24 -10 -184 0 -211 6 -15 9 -16 16 -4 12 18 12
187 0 215 l-8 20 -8 -20z"/>
<path d="M10414 5254 c-8 -30 0 -191 9 -201 14 -13 21 9 25 72 7 112 -16 201
-34 129z"/>
<path d="M9600 4905 c-15 -39 -12 -214 4 -250 l14 -30 11 29 c7 16 12 66 12
110 1 131 -19 199 -41 141z"/>
<path d="M9681 4899 c-22 -64 -8 -259 19 -259 9 0 13 18 24 101 6 46 -9 168
-22 181 -6 6 -14 -2 -21 -23z"/>
<path d="M9763 4914 c-13 -32 -10 -241 4 -255 7 -7 16 -9 20 -5 14 13 9 254
-4 267 -10 10 -14 8 -20 -7z"/>
<path d="M9913 4915 c-13 -33 -10 -232 4 -246 7 -7 16 -9 20 -5 13 13 9 229
-4 251 l-12 20 -8 -20z"/>
<path d="M9980 4889 c-14 -49 -8 -186 8 -216 10 -17 11 -17 19 2 12 31 9 233
-4 246 -9 9 -15 0 -23 -32z"/>
<path d="M10053 4915 c-13 -32 -10 -222 4 -236 10 -10 14 -8 20 7 12 29 9 206
-4 229 l-12 20 -8 -20z"/>
<path d="M10183 4915 c-10 -26 -10 -181 0 -219 6 -22 11 -26 20 -17 15 15 15
209 0 236 l-12 20 -8 -20z"/>
<path d="M10245 4907 c-9 -33 -2 -213 8 -223 16 -17 22 13 22 116 0 71 -4 113
-12 121 -9 9 -13 6 -18 -14z"/>
<path d="M10306 4908 c-8 -33 -6 -189 4 -213 l8 -20 8 20 c13 29 10 213 -3
226 -7 7 -12 4 -17 -13z"/>
<path d="M10366 4915 c-9 -25 -7 -198 3 -214 16 -25 23 8 23 111 0 95 -11 140
-26 103z"/>
<path d="M10424 4919 c-11 -17 -11 -200 0 -218 16 -26 26 13 25 104 0 98 -9
139 -25 114z"/>
<path d="M7726 4898 c-54 -82 -39 -388 18 -388 28 0 48 59 53 159 6 111 -9
207 -36 235 -19 18 -19 18 -35 -6z"/>
<path d="M7885 4897 c-21 -33 -34 -164 -24 -252 13 -122 45 -159 76 -87 21 47
24 249 5 304 -19 54 -37 65 -57 35z"/>
<path d="M8033 4888 c-14 -27 -18 -58 -18 -163 0 -105 4 -136 18 -162 10 -18
22 -33 27 -33 5 0 17 15 27 33 25 46 25 265 1 320 -21 45 -32 47 -55 5z"/>
<path d="M8183 4894 c-15 -24 -18 -49 -18 -159 0 -139 14 -199 44 -193 51 10
56 327 6 368 -11 9 -18 5 -32 -16z"/>
<path d="M8319 4888 c-19 -45 -19 -261 0 -305 34 -83 66 -7 66 157 -1 81 -5
124 -15 144 -21 41 -35 42 -51 4z"/>
<path d="M8461 4906 c-45 -54 -32 -346 15 -346 8 0 20 12 26 28 16 39 16 248
0 295 -15 40 -23 45 -41 23z"/>
<path d="M8578 4893 c-15 -37 -16 -259 0 -295 31 -75 64 1 64 146 -1 135 -35
217 -64 149z"/>
<path d="M8699 4883 c-19 -57 -16 -240 5 -281 9 -18 21 -30 26 -27 18 11 30
81 29 175 0 142 -33 213 -60 133z"/>
<path d="M8818 4893 c-17 -40 -16 -240 1 -280 31 -75 55 -15 54 137 0 111 -11
170 -33 170 -6 0 -16 -12 -22 -27z"/>
<path d="M8929 4893 c-7 -15 -12 -73 -12 -128 -1 -154 33 -225 60 -124 23 88
8 266 -24 277 -7 2 -18 -9 -24 -25z"/>
<path d="M9038 4898 c-8 -15 -13 -64 -13 -138 0 -110 11 -160 34 -160 29 0 43
202 20 283 -11 42 -23 47 -41 15z"/>
<path d="M9139 4893 c-16 -42 -8 -256 11 -278 14 -16 15 -16 27 11 7 16 12 74
13 130 0 138 -25 205 -51 137z"/>
<path d="M9240 4894 c-6 -14 -10 -72 -10 -129 0 -138 26 -200 49 -117 22 78 8
272 -20 272 -5 0 -14 -12 -19 -26z"/>
<path d="M9333 4893 c-10 -36 -10 -209 0 -245 9 -35 25 -36 38 -1 12 33 13
196 1 237 -11 40 -29 44 -39 9z"/>
<path d="M9419 4863 c-12 -62 -7 -170 11 -217 20 -54 35 -14 38 107 5 159 -24
225 -49 110z"/>
<path d="M9516 4904 c-25 -65 -11 -281 17 -271 34 11 34 273 1 284 -6 2 -14
-4 -18 -13z"/>
<path d="M9836 4904 c-13 -33 -6 -220 8 -240 14 -18 15 -18 23 11 10 37 10
180 0 218 -8 30 -22 35 -31 11z"/>
<path d="M10114 4895 c-8 -33 -1 -211 9 -221 17 -17 27 25 27 118 0 97 -5 128
-21 128 -5 0 -11 -11 -15 -25z"/>
<path d="M5204 4898 c-52 -24 -84 -130 -84 -278 0 -150 32 -254 86 -279 106
-48 167 328 82 497 -28 55 -54 74 -84 60z"/>
<path d="M5503 4895 c-12 -8 -32 -41 -44 -73 -18 -47 -22 -78 -23 -182 -1
-137 16 -217 55 -258 75 -82 148 75 136 294 -6 110 -37 203 -75 223 -26 14
-23 14 -49 -4z"/>
<path d="M5793 4895 c-65 -45 -88 -282 -42 -435 23 -77 71 -101 108 -54 37 47
46 93 46 239 0 125 -3 146 -24 193 -13 29 -32 57 -42 62 -22 13 -21 13 -46 -5z"/>
<path d="M6051 4885 c-43 -56 -64 -242 -40 -357 41 -195 128 -172 160 42 17
122 -9 276 -55 323 -24 24 -41 21 -65 -8z"/>
<path d="M6300 4878 c-41 -68 -52 -290 -19 -390 13 -39 43 -78 59 -78 18 0 49
39 61 77 18 59 23 236 9 303 -24 114 -71 152 -110 88z"/>
<path d="M6544 4885 c-41 -63 -55 -223 -31 -341 36 -170 112 -145 135 43 24
202 -42 392 -104 298z"/>
<path d="M6758 4863 c-45 -103 -31 -354 23 -408 l20 -20 24 27 c34 39 48 124
43 253 -4 88 -9 119 -26 153 -31 58 -57 57 -84 -5z"/>
<path d="M6976 4882 c-27 -52 -40 -183 -26 -274 22 -152 62 -191 102 -100 53
119 23 402 -42 402 -11 0 -26 -12 -34 -28z"/>
<path d="M7175 4876 c-22 -51 -33 -176 -23 -259 14 -118 41 -165 77 -133 67
61 53 414 -17 424 -18 3 -26 -4 -37 -32z"/>
<path d="M7362 4873 c-26 -59 -24 -293 3 -348 11 -22 27 -40 35 -40 8 0 24 18
35 40 28 56 29 267 2 338 -24 60 -50 64 -75 10z"/>
<path d="M7542 4873 c-24 -54 -24 -281 0 -335 21 -47 50 -51 67 -10 31 73 30
285 -1 350 -20 42 -45 40 -66 -5z"/>
<path d="M3254 4890 c-38 -15 -83 -79 -104 -147 -44 -142 -36 -323 20 -442 85
-180 225 -94 261 162 22 148 -15 327 -82 395 -17 18 -35 32 -39 32 -5 0 -14 2
-22 4 -7 3 -22 1 -34 -4z"/>
<path d="M3700 4887 c-61 -31 -100 -134 -107 -287 -8 -171 30 -308 99 -350 81
-49 152 43 180 234 23 161 -28 363 -102 401 -35 18 -38 18 -70 2z"/>
<path d="M4095 4867 c-48 -48 -67 -119 -73 -269 -3 -110 -1 -138 17 -198 27
-88 65 -133 111 -133 41 0 69 30 101 110 21 51 24 75 24 198 0 167 -17 239
-70 292 -42 42 -68 42 -110 0z"/>
<path d="M4491 4878 c-104 -96 -105 -464 -2 -567 103 -103 207 176 156 419
-31 145 -93 205 -154 148z"/>
<path d="M4839 4869 c-39 -56 -59 -141 -59 -257 0 -150 31 -252 85 -288 23
-15 27 -15 50 0 60 39 88 133 88 291 -1 169 -47 285 -114 285 -19 0 -34 -9
-50 -31z"/>
<path d="M929 4867 c-57 -30 -109 -104 -140 -199 -20 -62 -24 -93 -24 -203 0
-137 11 -194 51 -276 118 -237 326 -161 390 143 19 86 14 256 -9 328 -38 118
-97 196 -166 219 -46 15 -51 14 -102 -12z"/>
<path d="M1589 4867 c-51 -34 -93 -96 -120 -178 -21 -64 -24 -92 -24 -209 1
-120 4 -143 27 -208 45 -125 109 -187 182 -178 98 12 174 135 197 319 24 194
-34 382 -141 455 -42 28 -78 28 -121 -1z"/>
<path d="M2189 4873 c-121 -75 -174 -388 -99 -586 37 -97 96 -157 155 -157 54
0 119 75 157 182 30 86 33 313 4 398 -50 149 -136 213 -217 163z"/>
<path d="M2721 4865 c-41 -35 -78 -115 -96 -209 -19 -100 -19 -168 1 -263 44
-214 168 -290 255 -156 34 51 46 85 64 168 19 91 19 167 -1 262 -38 184 -136
271 -223 198z"/>
<path d="M195 4867 c-39 -18 -98 -84 -129 -144 -61 -121 -80 -281 -52 -423 22
-107 53 -176 106 -234 152 -165 358 -5 389 301 10 93 0 213 -23 288 -21 69
-74 152 -118 188 -44 36 -123 46 -173 24z"/>
<path d="M10426 4554 c-8 -20 -8 -172 0 -201 13 -50 24 -6 24 97 0 101 -9 142
-24 104z"/>
<path d="M10304 4514 c-7 -49 -1 -181 10 -191 13 -13 21 11 24 78 8 127 -19
214 -34 113z"/>
<path d="M10366 4538 c-3 -13 -6 -54 -6 -93 0 -74 7 -115 20 -115 14 0 23 98
15 166 -7 65 -18 82 -29 42z"/>
<path d="M10186 4528 c-3 -13 -6 -63 -6 -113 0 -87 10 -128 27 -111 13 12 10
223 -3 236 -8 8 -13 5 -18 -12z"/>
<path d="M10244 4514 c-7 -41 -1 -191 9 -201 14 -13 22 10 25 78 7 122 -17
211 -34 123z"/>
<path d="M10120 4515 c-8 -19 -10 -65 -7 -123 4 -96 18 -134 33 -91 11 35 8
203 -4 225 -10 18 -12 17 -22 -11z"/>
<path d="M9983 4494 c-16 -76 -4 -234 17 -234 14 0 23 81 19 169 -5 93 -23
126 -36 65z"/>
<path d="M10054 4519 c-11 -18 -8 -214 4 -235 10 -18 11 -17 21 9 12 30 15
177 5 215 -7 24 -19 29 -30 11z"/>
<path d="M9913 4493 c-10 -35 -10 -179 0 -215 4 -16 11 -28 16 -28 14 0 21 41
21 135 0 94 -7 135 -21 135 -5 0 -12 -12 -16 -27z"/>
<path d="M9766 4494 c-21 -54 -18 -218 4 -254 13 -21 19 -10 31 58 16 90 -13
253 -35 196z"/>
<path d="M9836 4479 c-10 -50 -7 -185 4 -215 18 -45 33 -13 38 78 4 88 -7 159
-24 165 -6 2 -14 -10 -18 -28z"/>
<path d="M9679 4443 c-13 -65 -7 -180 12 -215 13 -22 13 -22 25 17 22 71 10
255 -16 255 -5 0 -14 -26 -21 -57z"/>
<path d="M9599 4448 c-7 -25 -9 -78 -6 -128 5 -86 13 -120 27 -120 11 0 30 91
30 145 0 55 -19 145 -30 145 -5 0 -14 -19 -21 -42z"/>
<path d="M9520 4461 c-11 -21 -14 -211 -4 -248 10 -35 31 -27 39 13 15 83 2
254 -19 254 -3 0 -10 -9 -16 -19z"/>
<path d="M9429 4443 c-14 -36 -8 -248 8 -264 21 -21 37 31 37 126 1 142 -19
204 -45 138z"/>
<path d="M9334 4428 c-3 -18 -6 -77 -6 -130 0 -91 11 -138 32 -138 12 0 30 90
30 150 0 114 -38 196 -56 118z"/>
<path d="M9149 4429 c-18 -32 -24 -203 -10 -256 13 -46 35 -57 44 -20 14 56
17 148 8 211 -12 80 -23 99 -42 65z"/>
<path d="M9241 4419 c-14 -42 -14 -191 1 -240 25 -84 48 -27 48 116 0 140 -23
198 -49 124z"/>
<path d="M9040 4404 c-14 -35 -13 -223 1 -263 26 -75 51 -12 51 129 0 103 -11
160 -32 160 -6 0 -15 -12 -20 -26z"/>
<path d="M8931 4383 c-23 -83 -6 -288 24 -288 18 0 34 69 34 153 1 143 -34
223 -58 135z"/>
<path d="M8820 4375 c-18 -54 -14 -237 5 -276 20 -37 32 -29 46 27 20 90 3
284 -26 284 -7 0 -19 -16 -25 -35z"/>
<path d="M8708 4378 c-19 -35 -23 -234 -5 -283 17 -48 27 -50 47 -10 30 61 13
315 -20 315 -5 0 -15 -10 -22 -22z"/>
<path d="M8583 4353 c-21 -52 -21 -235 1 -288 15 -34 18 -37 31 -24 35 35 44
235 15 317 -15 42 -27 41 -47 -5z"/>
<path d="M8458 4353 c-18 -43 -22 -240 -6 -293 30 -100 66 -24 66 140 0 141
-31 222 -60 153z"/>
<path d="M8318 4323 c-20 -59 -17 -259 5 -300 10 -18 21 -33 26 -33 34 0 55
233 29 320 -18 59 -42 64 -60 13z"/>
<path d="M8183 4318 c-26 -48 -26 -268 0 -315 10 -18 22 -33 28 -33 53 0 55
360 2 377 -6 3 -20 -11 -30 -29z"/>
<path d="M8033 4293 c-12 -28 -16 -68 -16 -153 0 -128 17 -194 50 -188 27 5
41 72 41 188 0 58 -5 123 -12 145 -16 55 -42 58 -63 8z"/>
<path d="M7883 4288 c-24 -44 -26 -286 -3 -332 21 -41 36 -42 57 -4 24 44 26
286 3 332 -21 41 -36 42 -57 4z"/>
<path d="M7720 4273 c-19 -38 -25 -243 -11 -309 26 -116 73 -84 89 63 15 129
-10 273 -48 273 -9 0 -23 -12 -30 -27z"/>
<path d="M7556 4263 c-33 -67 -44 -185 -26 -284 14 -76 29 -109 50 -109 62 0
80 310 24 398 -19 29 -30 28 -48 -5z"/>
<path d="M7381 4257 c-6 -7 -18 -45 -27 -83 -28 -120 -7 -300 39 -328 43 -26
72 84 65 244 -7 143 -38 213 -77 167z"/>
<path d="M7193 4238 c-27 -34 -38 -99 -38 -218 0 -105 3 -131 20 -165 49 -98
105 0 105 184 0 69 -22 175 -42 198 -13 16 -33 17 -45 1z"/>
<path d="M6993 4218 c-30 -39 -38 -87 -38 -223 0 -118 3 -146 19 -175 34 -63
56 -61 83 8 27 71 26 301 -2 357 -21 42 -45 55 -62 33z"/>
<path d="M6776 4188 c-26 -41 -39 -110 -39 -213 -1 -113 16 -195 43 -220 42
-38 73 13 92 145 25 176 -41 374 -96 288z"/>
<path d="M10426 4188 c-3 -13 -6 -54 -6 -93 0 -120 22 -158 34 -58 7 61 -2
173 -14 173 -4 0 -10 -10 -14 -22z"/>
<path d="M10365 4131 c-10 -96 8 -201 26 -155 9 23 11 170 3 202 -11 40 -22
23 -29 -47z"/>
<path d="M6558 4173 c-24 -29 -38 -74 -48 -158 -19 -170 31 -350 86 -305 54
46 80 228 51 366 -21 99 -55 136 -89 97z"/>
<path d="M10314 4179 c-11 -17 -11 -215 0 -226 16 -16 26 27 26 117 0 97 -9
135 -26 109z"/>
<path d="M10253 4165 c-4 -11 -8 -60 -8 -110 0 -49 4 -99 8 -110 16 -38 28 10
28 110 1 99 -12 149 -28 110z"/>
<path d="M10190 4145 c-7 -19 -10 -65 -8 -122 4 -90 10 -114 26 -99 11 12 15
198 4 226 l-10 25 -12 -30z"/>
<path d="M6307 4131 c-42 -72 -58 -233 -33 -348 17 -79 39 -113 72 -113 20 0
29 9 45 44 63 143 36 435 -42 444 -18 2 -29 -5 -42 -27z"/>
<path d="M10122 4133 c-9 -25 -9 -172 1 -207 20 -74 46 59 33 168 -7 56 -21
71 -34 39z"/>
<path d="M6067 4123 c-48 -54 -76 -209 -59 -326 32 -212 112 -236 157 -46 45
192 -24 453 -98 372z"/>
<path d="M10054 4106 c-8 -44 -2 -212 9 -222 16 -16 22 11 25 107 4 103 -2
149 -18 149 -5 0 -12 -16 -16 -34z"/>
<path d="M9985 4085 c-10 -63 -2 -202 12 -216 27 -27 42 181 17 246 -11 27
-23 16 -29 -30z"/>
<path d="M5786 4088 c-40 -61 -50 -110 -50 -253 0 -129 2 -144 24 -189 14 -28
33 -54 43 -60 67 -41 133 172 108 348 -14 104 -46 170 -83 174 -19 2 -31 -3
-42 -20z"/>
<path d="M9916 4094 c-10 -26 -7 -218 4 -234 23 -35 37 35 32 155 -4 86 -20
121 -36 79z"/>
<path d="M9843 4073 c-5 -16 -8 -64 -8 -108 0 -83 9 -135 24 -135 14 0 21 41
21 135 0 94 -7 135 -21 135 -5 0 -12 -12 -16 -27z"/>
<path d="M9770 4065 c-13 -34 -16 -174 -5 -223 9 -43 27 -36 38 14 11 48 3
195 -11 220 -10 17 -12 16 -22 -11z"/>
<path d="M5490 4048 c-36 -59 -51 -132 -51 -251 0 -127 19 -205 56 -243 30
-30 46 -30 73 -1 83 89 87 419 5 509 -26 29 -60 23 -83 -14z"/>
<path d="M9690 4044 c-13 -32 -10 -237 3 -250 4 -4 13 -2 20 5 17 17 17 245 0
262 -10 10 -15 6 -23 -17z"/>
<path d="M9610 4035 c-15 -35 -18 -174 -7 -228 10 -46 28 -44 40 4 12 44 4
208 -10 234 -11 19 -12 19 -23 -10z"/>
<path d="M5186 4025 c-35 -37 -58 -119 -63 -227 -9 -154 26 -284 83 -310 21
-10 28 -8 52 15 51 49 67 114 67 277 0 131 -2 150 -24 198 -34 76 -73 92 -115
47z"/>
<path d="M9521 4009 c-15 -43 -13 -207 3 -244 12 -30 13 -30 24 -8 28 52 22
283 -8 283 -4 0 -13 -14 -19 -31z"/>
<path d="M4859 3999 c-74 -74 -102 -314 -54 -468 29 -94 91 -129 134 -75 45
57 64 132 65 259 1 142 -15 219 -56 270 -34 40 -59 44 -89 14z"/>
<path d="M9433 3993 c-10 -36 -10 -210 0 -245 8 -32 22 -36 32 -10 12 28 17
194 8 236 -11 48 -30 57 -40 19z"/>
<path d="M9343 3988 c-11 -19 -16 -208 -6 -247 22 -85 53 -18 53 115 0 109
-22 171 -47 132z"/>
<path d="M9249 3965 c-28 -67 -9 -319 22 -288 31 31 35 258 4 300 -13 17 -14
16 -26 -12z"/>
<path d="M4487 3948 c-97 -131 -95 -460 2 -557 59 -59 128 12 160 166 17 77
10 249 -12 318 -33 103 -103 136 -150 73z"/>
<path d="M9149 3945 c-17 -41 -18 -243 -1 -272 26 -47 40 -25 49 82 7 85 -3
175 -22 201 -13 18 -14 17 -26 -11z"/>
<path d="M4134 3940 c-96 -36 -147 -341 -88 -518 52 -158 161 -145 215 25 31
99 31 282 0 373 -33 97 -77 138 -127 120z"/>
<path d="M9049 3929 c-15 -28 -24 -169 -15 -232 4 -24 13 -52 20 -62 13 -18
14 -18 24 2 28 51 26 260 -2 299 -13 16 -14 16 -27 -7z"/>
<path d="M8939 3904 c-17 -39 -17 -250 -1 -288 12 -28 14 -28 30 -12 14 14 17
38 17 156 0 118 -3 142 -17 156 -16 16 -18 16 -29 -12z"/>
<path d="M3709 3891 c-116 -62 -158 -407 -70 -579 53 -105 141 -93 193 26 83
187 52 490 -58 554 -29 17 -31 17 -65 -1z"/>
<path d="M8819 3846 c-6 -30 -10 -93 -7 -147 7 -162 49 -184 68 -35 9 72 0
202 -16 227 -14 24 -33 5 -45 -45z"/>
<path d="M8708 3853 c-17 -41 -16 -250 1 -290 7 -18 17 -33 21 -33 4 0 14 15
21 33 19 43 19 263 1 295 -17 29 -30 28 -44 -5z"/>
<path d="M3245 3842 c-70 -43 -118 -186 -118 -347 0 -167 41 -283 114 -321
153 -78 263 355 152 594 -25 52 -69 92 -103 92 -8 0 -29 -8 -45 -18z"/>
<path d="M8588 3833 c-17 -43 -22 -230 -6 -282 28 -94 59 -43 65 109 6 149
-27 249 -59 173z"/>
<path d="M10435 3850 c-11 -18 -13 -215 -2 -226 15 -15 22 10 25 89 4 91 -8
161 -23 137z"/>
<path d="M10376 3832 c-9 -15 -9 -209 0 -223 14 -24 25 23 25 110 1 86 -10
136 -25 113z"/>
<path d="M8459 3803 c-18 -45 -22 -221 -7 -277 29 -111 71 -39 72 124 1 111
-15 180 -40 180 -8 0 -19 -12 -25 -27z"/>
<path d="M10317 3814 c-10 -11 -8 -207 3 -224 16 -25 25 17 25 117 0 85 -10
124 -28 107z"/>
<path d="M2747 3791 c-149 -98 -179 -517 -48 -662 69 -75 136 -56 198 58 93
169 78 478 -28 584 -44 44 -77 50 -122 20z"/>
<path d="M8331 3783 c-29 -63 -30 -270 -1 -323 32 -60 62 20 62 165 0 77 -4
121 -15 148 -19 44 -29 46 -46 10z"/>
<path d="M10256 3794 c-11 -28 -8 -216 3 -227 18 -18 26 22 26 125 0 58 -4
101 -11 108 -8 8 -13 7 -18 -6z"/>
<path d="M10193 3775 c-10 -25 -10 -221 0 -231 4 -4 13 -2 19 4 17 17 17 200
1 227 l-12 20 -8 -20z"/>
<path d="M8189 3753 c-38 -101 -23 -353 21 -353 5 0 17 15 27 33 22 42 25 264
4 315 -16 39 -38 41 -52 5z"/>
<path d="M10126 3748 c-8 -33 -6 -200 4 -223 7 -19 9 -18 19 8 19 50 12 237
-9 237 -4 0 -10 -10 -14 -22z"/>
<path d="M2235 3752 c-64 -13 -135 -121 -161 -244 -44 -212 8 -440 114 -501
117 -68 243 133 244 388 0 221 -87 380 -197 357z"/>
<path d="M8052 3737 c-38 -45 -43 -298 -8 -352 38 -58 69 22 69 180 0 140 -26
214 -61 172z"/>
<path d="M10060 3726 c-13 -35 -13 -177 0 -212 21 -53 34 -11 34 106 0 117
-13 159 -34 106z"/>
<path d="M9993 3714 c-10 -25 -10 -230 0 -240 4 -4 13 -2 20 5 17 17 17 225 0
242 -10 10 -14 8 -20 -7z"/>
<path d="M7889 3693 c-33 -86 -36 -242 -7 -328 26 -78 60 -41 79 89 12 79 1
205 -21 247 -15 27 -39 23 -51 -8z"/>
<path d="M9920 3686 c-13 -35 -13 -187 0 -222 8 -21 13 -25 23 -15 17 17 17
235 0 252 -10 10 -14 6 -23 -15z"/>
<path d="M1634 3693 c-64 -12 -145 -130 -175 -253 -18 -73 -18 -271 0 -335 36
-128 101 -205 173 -205 117 0 208 154 224 380 11 147 -33 306 -103 372 -26 25
-75 50 -91 47 -4 -1 -17 -4 -28 -6z"/>
<path d="M7723 3653 c-35 -83 -26 -332 14 -364 57 -48 97 221 51 356 -18 54
-44 58 -65 8z"/>
<path d="M9844 3648 c-8 -52 -8 -180 1 -208 3 -11 10 -20 15 -20 16 0 25 51
25 135 0 125 -25 182 -41 93z"/>
<path d="M9773 3654 c-13 -32 -10 -241 4 -255 22 -22 35 38 31 148 -3 103 -18
149 -35 107z"/>
<path d="M7567 3642 c-26 -29 -40 -126 -34 -244 5 -111 20 -158 52 -158 8 0
22 17 32 38 25 55 25 303 0 350 -20 37 -28 39 -50 14z"/>
<path d="M9692 3623 c-13 -31 -8 -241 5 -254 7 -7 16 -9 20 -5 10 10 17 198 9
242 -7 37 -22 44 -34 17z"/>
<path d="M945 3614 c-46 -24 -81 -61 -113 -123 -54 -102 -66 -161 -66 -316 0
-128 3 -146 27 -208 46 -118 107 -177 182 -177 70 0 134 55 183 155 47 98 57
148 57 295 0 156 -20 235 -81 314 -56 74 -122 95 -189 60z"/>
<path d="M7375 3587 c-49 -118 -28 -397 30 -397 42 0 75 173 57 298 -6 43 -17
91 -23 106 -17 37 -47 34 -64 -7z"/>
<path d="M9613 3605 c-13 -32 -10 -252 4 -266 21 -21 33 33 33 145 0 73 -4
108 -14 122 -14 19 -15 19 -23 -1z"/>
<path d="M9530 3580 c-28 -53 -20 -280 11 -280 28 0 39 237 12 284 -10 18 -11
18 -23 -4z"/>
<path d="M7202 3578 c-67 -81 -56 -438 14 -438 8 0 25 21 37 48 19 41 22 64
22 187 0 122 -3 144 -20 174 -23 40 -37 47 -53 29z"/>
<path d="M9442 3554 c-17 -32 -24 -146 -13 -213 6 -35 13 -66 16 -69 24 -24
46 119 34 219 -8 69 -22 92 -37 63z"/>
<path d="M236 3553 c-79 -22 -159 -124 -202 -257 -22 -68 -27 -101 -28 -201
-1 -131 11 -199 51 -280 91 -184 248 -195 361 -25 96 144 125 392 67 565 -24
70 -77 148 -117 173 -36 22 -100 34 -132 25z"/>
<path d="M6990 3518 c-11 -18 -23 -53 -27 -78 -13 -72 -7 -250 9 -294 47 -128
112 -19 112 184 0 109 -14 178 -40 205 -22 22 -32 19 -54 -17z"/>
<path d="M9339 3483 c-17 -87 -3 -243 22 -243 19 0 29 54 29 156 0 147 -28
195 -51 87z"/>
<path d="M9250 3486 c-20 -61 -13 -267 10 -281 4 -3 14 3 21 11 10 12 14 50
14 133 0 159 -18 217 -45 137z"/>
<path d="M6784 3484 c-29 -43 -44 -123 -44 -226 0 -112 15 -180 46 -209 l22
-20 20 21 c33 35 47 106 47 235 0 121 -12 180 -42 210 -20 21 -30 19 -49 -11z"/>
<path d="M9151 3453 c-12 -42 -13 -213 -2 -253 9 -34 33 -31 43 5 11 39 11
211 0 249 -12 43 -29 43 -41 -1z"/>
<path d="M6556 3438 c-32 -51 -41 -104 -41 -233 0 -113 3 -136 22 -177 37 -81
82 -57 109 60 26 111 11 312 -26 358 -18 21 -48 17 -64 -8z"/>
<path d="M9057 3453 c-3 -5 -11 -36 -17 -71 -14 -68 -9 -178 10 -226 10 -27
12 -28 27 -13 33 33 27 317 -7 317 -5 0 -11 -3 -13 -7z"/>
<path d="M8950 3415 c-31 -37 -29 -280 3 -312 13 -13 16 -11 26 19 18 52 24
167 12 233 -13 68 -22 82 -41 60z"/>
<path d="M6321 3394 c-37 -48 -46 -93 -46 -244 0 -132 2 -149 23 -187 35 -67
74 -54 108 37 26 67 26 287 1 353 -16 40 -40 67 -61 67 -2 0 -14 -12 -25 -26z"/>
<path d="M8828 3363 c-17 -41 -16 -241 1 -281 18 -42 36 -29 50 39 31 144 -10
339 -51 242z"/>
<path d="M6071 3351 c-10 -10 -27 -43 -37 -72 -27 -77 -27 -293 -1 -362 30
-76 71 -86 103 -25 30 58 44 131 44 234 0 110 -19 193 -51 225 -24 24 -34 24
-58 0z"/>
<path d="M8709 3318 c-27 -97 -9 -303 26 -303 30 0 49 242 24 314 -15 43 -36
39 -50 -11z"/>
<path d="M8602 3318 c-19 -24 -35 -138 -29 -216 14 -201 77 -162 77 48 0 74
-5 122 -14 145 -17 39 -19 40 -34 23z"/>
<path d="M5791 3284 c-67 -85 -78 -350 -18 -458 27 -49 49 -55 81 -23 71 71
87 351 28 466 -25 47 -61 53 -91 15z"/>
<path d="M8463 3253 c-11 -27 -16 -70 -17 -148 -1 -118 14 -178 42 -173 51 10
55 339 4 356 -7 2 -19 -13 -29 -35z"/>
<path d="M5506 3235 c-35 -38 -58 -120 -63 -233 -9 -171 28 -287 92 -287 24 0
34 7 53 42 72 131 65 409 -14 487 -22 22 -41 20 -68 -9z"/>
<path d="M8330 3218 c-32 -87 -18 -333 20 -333 31 0 44 55 45 180 0 122 -14
185 -40 185 -7 0 -18 -15 -25 -32z"/>
<path d="M8202 3197 c-46 -56 -38 -356 10 -365 29 -6 43 61 43 203 0 151 -18
205 -53 162z"/>
<path d="M5195 3174 c-31 -33 -52 -97 -67 -201 -21 -148 20 -325 79 -340 36
-8 54 5 84 65 66 127 59 386 -12 476 -26 33 -53 33 -84 0z"/>
<path d="M8052 3153 c-21 -38 -35 -146 -29 -226 9 -140 41 -186 75 -109 22 51
24 273 2 316 -18 36 -36 43 -48 19z"/>
<path d="M4863 3108 c-62 -65 -95 -240 -74 -380 29 -192 111 -247 175 -116 36
74 49 155 44 284 -4 98 -8 118 -34 170 -25 51 -33 59 -59 62 -22 2 -37 -4 -52
-20z"/>
<path d="M7891 3087 c-20 -60 -29 -175 -20 -249 22 -178 86 -134 97 67 6 121
-15 215 -48 215 -12 0 -22 -11 -29 -33z"/>
<path d="M7742 3067 c-25 -29 -44 -150 -39 -238 9 -144 49 -201 85 -121 23 51
24 293 2 336 -18 35 -33 42 -48 23z"/>
<path d="M4516 3049 c-101 -79 -131 -394 -52 -546 31 -61 80 -69 121 -21 52
62 75 151 76 295 1 137 -18 212 -66 260 -39 39 -44 40 -79 12z"/>
<path d="M7573 3018 c-27 -34 -38 -98 -38 -218 0 -100 4 -132 18 -157 36 -67
69 -24 88 112 20 146 -25 318 -68 263z"/>
<path d="M4112 2958 c-75 -79 -111 -274 -79 -438 34 -172 128 -222 194 -105
43 76 57 142 57 275 1 144 -17 219 -63 269 -38 40 -69 40 -109 -1z"/>
<path d="M7403 2972 c-60 -37 -71 -364 -15 -415 10 -9 23 -13 29 -9 60 37 71
364 15 415 -10 9 -23 13 -29 9z"/>
<path d="M7196 2898 c-57 -91 -43 -407 19 -416 29 -4 52 48 65 151 24 177 -30
349 -84 265z"/>
<path d="M3700 2884 c-104 -88 -141 -386 -69 -555 41 -96 99 -114 159 -51 54
58 82 150 88 292 6 164 -22 270 -84 319 -35 28 -56 26 -94 -5z"/>
<path d="M7001 2845 c-27 -36 -42 -113 -42 -227 0 -95 13 -171 33 -195 22 -27
49 -14 71 35 19 41 22 65 22 182 0 143 -12 202 -45 220 -15 8 -23 5 -39 -15z"/>
<path d="M3246 2799 c-67 -53 -116 -201 -116 -355 0 -162 38 -274 106 -310 34
-18 35 -18 71 1 80 43 133 191 133 369 0 231 -94 374 -194 295z"/>
<path d="M6781 2770 c-27 -44 -44 -165 -39 -262 17 -276 139 -211 139 75 0 57
-3 116 -7 132 -20 86 -60 109 -93 55z"/>
<path d="M6566 2718 c-31 -43 -49 -130 -50 -238 -1 -150 32 -245 79 -226 45
17 81 207 66 343 -13 114 -59 172 -95 121z"/>
<path d="M2768 2711 c-83 -41 -137 -172 -145 -346 -8 -179 30 -310 102 -355
47 -29 84 -20 131 32 74 82 109 218 101 388 -6 123 -26 194 -73 249 -39 45
-72 54 -116 32z"/>
<path d="M6326 2647 c-39 -58 -49 -110 -50 -247 -1 -119 2 -141 21 -182 23
-51 48 -62 76 -33 43 42 68 200 55 333 -13 125 -63 189 -102 129z"/>
<path d="M2210 2598 c-48 -33 -96 -107 -122 -191 -30 -98 -33 -313 -4 -397 23
-70 57 -121 96 -144 86 -50 188 49 235 229 75 290 -53 605 -205 503z"/>
<path d="M6076 2577 c-88 -88 -80 -482 10 -495 55 -8 97 110 97 273 1 118 -11
177 -44 219 -25 32 -34 32 -63 3z"/>
<path d="M5808 2503 c-50 -57 -72 -160 -66 -310 3 -82 9 -119 25 -155 38 -84
84 -72 124 31 31 78 39 273 15 355 -25 85 -65 117 -98 79z"/>
<path d="M1625 2491 c-59 -24 -129 -135 -161 -252 -22 -85 -23 -272 -2 -352
74 -266 274 -244 365 41 29 93 41 249 24 337 -15 83 -68 185 -110 213 -34 22
-80 27 -116 13z"/>
<path d="M5510 2408 c-55 -60 -85 -271 -56 -402 39 -175 122 -165 170 20 30
118 16 312 -28 380 -21 30 -58 31 -86 2z"/>
<path d="M945 2351 c-65 -39 -129 -143 -161 -262 -25 -88 -25 -292 -1 -370 37
-118 104 -189 180 -189 49 0 85 19 130 69 43 48 68 94 99 187 20 60 23 89 23
214 0 187 -23 260 -104 333 -35 32 -48 37 -89 37 -28 0 -59 -7 -77 -19z"/>
<path d="M5222 2337 c-28 -13 -68 -95 -82 -167 -16 -82 -13 -236 5 -297 9 -29
26 -65 39 -80 21 -24 27 -26 52 -18 56 20 103 160 103 310 1 169 -51 282 -117
252z"/>
<path d="M4871 2222 c-15 -15 -38 -54 -51 -87 -21 -53 -24 -77 -24 -205 -1
-157 8 -199 51 -250 31 -37 52 -38 86 -2 100 104 113 457 22 548 -31 31 -50
30 -84 -4z"/>
<path d="M197 2199 c-77 -51 -148 -176 -179 -313 -16 -70 -16 -250 1 -316 19
-77 68 -167 109 -198 51 -39 128 -42 186 -8 75 44 140 148 177 283 31 109 31
289 0 385 -55 173 -179 243 -294 167z"/>
<path d="M4535 2138 c-72 -42 -123 -212 -112 -377 7 -100 18 -145 50 -192 51
-76 119 -38 164 92 21 62 26 93 27 194 1 146 -14 213 -59 260 -35 38 -41 40
-70 23z"/>
<path d="M4116 1997 c-63 -67 -102 -251 -85 -400 18 -161 76 -236 149 -197 25
13 66 83 86 146 24 77 30 275 10 353 -33 128 -95 166 -160 98z"/>
<path d="M3712 1895 c-33 -24 -69 -92 -93 -179 -30 -111 -25 -304 11 -384 83
-191 227 -63 254 228 13 129 -27 300 -78 335 -27 19 -66 19 -94 0z"/>
<path d="M3247 1750 c-132 -116 -158 -519 -40 -642 73 -76 171 9 218 191 21
82 21 277 0 345 -40 128 -107 169 -178 106z"/>
<path d="M2790 1633 c-55 -20 -116 -114 -146 -224 -25 -91 -25 -293 -1 -374
22 -69 80 -135 119 -135 67 0 141 96 177 229 41 151 22 385 -37 456 -38 46
-75 61 -112 48z"/>
<path d="M2234 1470 c-53 -21 -126 -142 -155 -260 -20 -80 -18 -281 4 -351 30
-96 79 -148 139 -149 51 0 108 51 148 134 42 85 59 154 66 266 8 115 -6 194
-45 275 -41 82 -93 111 -157 85z"/>
<path d="M1632 1294 c-105 -53 -183 -244 -184 -449 -2 -182 46 -303 132 -339
90 -37 191 57 246 229 32 97 43 268 25 357 -16 74 -65 172 -97 193 -38 25 -84
28 -122 9z"/>
<path d="M974 1101 c-51 -23 -102 -82 -142 -164 -50 -103 -65 -177 -66 -317
-1 -156 23 -238 88 -305 48 -51 83 -62 139 -45 142 42 254 322 226 568 -23
210 -125 319 -245 263z"/>
<path d="M259 896 c-204 -73 -327 -508 -213 -755 75 -164 207 -187 322 -56
154 175 196 533 85 723 -45 76 -126 113 -194 88z"/>
</g>
</svg>
