<svg xmlns="http://www.w3.org/2000/svg" version="1.1" xmlns:xlink="http://www.w3.org/1999/xlink" xmlns:svgjs="http://svgjs.dev/svgjs" viewBox="0 0 800 800"><defs><linearGradient x1="50%" y1="0%" x2="50%" y2="100%" id="cccoil-grad"><stop stop-color="hsl(105, 69%, 40%)" stop-opacity="1" offset="0%"></stop><stop stop-color="hsl(105, 69%, 60%)" stop-opacity="1" offset="100%"></stop></linearGradient></defs><g stroke="url(#cccoil-grad)" fill="none" stroke-linecap="round"><circle r="412.5" cx="400" cy="400" stroke-width="7" stroke-dasharray="2203 2592" transform="rotate(360, 400, 400)" opacity="0.05"></circle><circle r="396" cx="400" cy="400" stroke-width="7" stroke-dasharray="2027 2488" transform="rotate(345, 400, 400)" opacity="0.09"></circle><circle r="379.5" cx="400" cy="400" stroke-width="7" stroke-dasharray="1858 2384" transform="rotate(330, 400, 400)" opacity="0.13"></circle><circle r="363" cx="400" cy="400" stroke-width="7" stroke-dasharray="1696 2281" transform="rotate(315, 400, 400)" opacity="0.17"></circle><circle r="346.5" cx="400" cy="400" stroke-width="7" stroke-dasharray="1542 2177" transform="rotate(300, 400, 400)" opacity="0.21"></circle><circle r="330" cx="400" cy="400" stroke-width="7" stroke-dasharray="1395 2073" transform="rotate(285, 400, 400)" opacity="0.25"></circle><circle r="313.5" cx="400" cy="400" stroke-width="7" stroke-dasharray="1256 1970" transform="rotate(270, 400, 400)" opacity="0.29"></circle><circle r="297" cx="400" cy="400" stroke-width="7" stroke-dasharray="1124 1866" transform="rotate(255, 400, 400)" opacity="0.33"></circle><circle r="280.5" cx="400" cy="400" stroke-width="7" stroke-dasharray="999 1762" transform="rotate(240, 400, 400)" opacity="0.37"></circle><circle r="264" cx="400" cy="400" stroke-width="7" stroke-dasharray="881 1659" transform="rotate(225, 400, 400)" opacity="0.41"></circle><circle r="247.5" cx="400" cy="400" stroke-width="7" stroke-dasharray="771 1555" transform="rotate(210, 400, 400)" opacity="0.45"></circle><circle r="231" cx="400" cy="400" stroke-width="7" stroke-dasharray="668 1451" transform="rotate(195, 400, 400)" opacity="0.49"></circle><circle r="214.5" cx="400" cy="400" stroke-width="7" stroke-dasharray="573 1348" transform="rotate(180, 400, 400)" opacity="0.53"></circle><circle r="198" cx="400" cy="400" stroke-width="7" stroke-dasharray="485 1244" transform="rotate(165, 400, 400)" opacity="0.56"></circle><circle r="181.5" cx="400" cy="400" stroke-width="7" stroke-dasharray="404 1140" transform="rotate(150, 400, 400)" opacity="0.60"></circle><circle r="165" cx="400" cy="400" stroke-width="7" stroke-dasharray="330 1037" transform="rotate(135, 400, 400)" opacity="0.64"></circle><circle r="148.5" cx="400" cy="400" stroke-width="7" stroke-dasharray="264 933" transform="rotate(120, 400, 400)" opacity="0.68"></circle><circle r="132" cx="400" cy="400" stroke-width="7" stroke-dasharray="206 829" transform="rotate(105, 400, 400)" opacity="0.72"></circle><circle r="115.5" cx="400" cy="400" stroke-width="7" stroke-dasharray="154 726" transform="rotate(90, 400, 400)" opacity="0.76"></circle><circle r="99" cx="400" cy="400" stroke-width="7" stroke-dasharray="110 622" transform="rotate(75, 400, 400)" opacity="0.80"></circle><circle r="82.5" cx="400" cy="400" stroke-width="7" stroke-dasharray="73 518" transform="rotate(60, 400, 400)" opacity="0.84"></circle><circle r="66" cx="400" cy="400" stroke-width="7" stroke-dasharray="44 415" transform="rotate(45, 400, 400)" opacity="0.88"></circle><circle r="49.5" cx="400" cy="400" stroke-width="7" stroke-dasharray="22 311" transform="rotate(30, 400, 400)" opacity="0.92"></circle><circle r="33" cx="400" cy="400" stroke-width="7" stroke-dasharray="7 207" transform="rotate(15, 400, 400)" opacity="0.96"></circle><circle r="16.5" cx="400" cy="400" stroke-width="7" stroke-dasharray="0 104" opacity="1.00"></circle></g></svg>